<svg id="Layer_1" data-name="Layer 1" xmlns="http://www.w3.org/2000/svg" viewBox="0 0 1024 1024"><defs><style>.cls-1{fill:#fff;}</style></defs><path class="cls-1" d="M285.44,764.16l308.48-151a30.92,30.92,0,0,0,17.92-17.92l151-308.48q6.4-12.8-3.2-22.4t-22.4-3.2l-308.48,151a30.92,30.92,0,0,0-17.92,17.92l-151,308.48q-6.4,12.8,3.2,22.4T285.44,764.16ZM512,1024q-105,0-198.4-40.32T150.4,873.6Q80.65,803.84,40.32,710.4T0,512Q0,407,40.32,313.6T150.4,150.4Q220.17,80.65,313.6,40.32T512,0Q617,0,710.4,40.32T873.6,150.4q69.75,69.76,110.08,163.2T1024,512q0,105-40.32,198.4T873.6,873.6q-69.76,69.75-163.2,110.08T512,1024Z"/></svg>