<svg id="Layer_1" data-name="Layer 1" xmlns="http://www.w3.org/2000/svg" viewBox="0 0 1024 1024"><defs><style>.cls-1{fill:#fff;}</style></defs><path class="cls-1" d="M479.29,19.3l-369.47,218a64.37,64.37,0,0,0-31.66,55.43v438.5a64.37,64.37,0,0,0,31.66,55.43l369.47,218a64.36,64.36,0,0,0,65.42,0l369.47-218a64.36,64.36,0,0,0,31.65-55.43V292.75a64.36,64.36,0,0,0-31.65-55.43L544.71,19.3A64.36,64.36,0,0,0,479.29,19.3Zm31.55,698.28c-112.62-.63-203.79-91.8-204.41-204.42-.64-114,92.74-207.37,206.74-206.74,112.61.63,203.79,91.8,204.41,204.42C718.21,624.83,624.84,718.21,510.84,717.58Z"/></svg>