<svg width="20" height="20" viewBox="0 0 20 20" fill="none" xmlns="http://www.w3.org/2000/svg">
    <path fill="#FFFFFF"
          d="M5.00008 17.4999C4.37508 17.4999 3.75703 17.3471 3.14591 17.0416C2.5348 16.736 2.04175 16.3332 1.66675 15.8332C2.02786 15.8332 2.39591 15.691 2.77091 15.4066C3.14591 15.1216 3.33341 14.7082 3.33341 14.1666C3.33341 13.4721 3.57647 12.8819 4.06258 12.3957C4.54869 11.9096 5.13897 11.6666 5.83341 11.6666C6.52786 11.6666 7.11814 11.9096 7.60425 12.3957C8.09036 12.8819 8.33341 13.4721 8.33341 14.1666C8.33341 15.0832 8.00703 15.868 7.35425 16.5207C6.70147 17.1735 5.91675 17.4999 5.00008 17.4999ZM9.79175 12.4999L7.50008 10.2082L14.9584 2.74991C15.1112 2.59713 15.3023 2.51713 15.5317 2.50991C15.7606 2.50324 15.9584 2.58324 16.1251 2.74991L17.2501 3.87491C17.4167 4.04157 17.5001 4.23602 17.5001 4.45824C17.5001 4.68046 17.4167 4.87491 17.2501 5.04157L9.79175 12.4999Z"/>
</svg>
