<?xml version="1.0" encoding="utf-8"?>
<!-- Generator: Adobe Illustrator 27.6.0, SVG Export Plug-In . SVG Version: 6.00 Build 0)  -->
<svg version="1.1" id="Layer_1" xmlns="http://www.w3.org/2000/svg" xmlns:xlink="http://www.w3.org/1999/xlink" x="0px" y="0px"
	 viewBox="0 0 1024 1024" style="enable-background:new 0 0 1024 1024;" xml:space="preserve">
<style type="text/css">
	.st0{fill:#FFFFFF;}
</style>
<path class="st0" d="M501.2,883.8H245.5c-68.3,0-126.3-23.9-174-71.6C23.8,764.5,0,706.5,0,638.2c0-60.5,19.4-113.6,58.2-159.4
	c38.8-45.8,88.1-73.3,147.8-82.6c15.5-75.2,52-136.7,109.4-184.4c57.4-47.7,123.7-71.6,199-71.6c86.9,0,160.2,31.6,219.9,94.8
	c34,36,58.3,76.1,73,120.2l-114.8-42.8l-0.2-0.1l-0.2-0.1c-10.7-3.9-21.5-5.9-32.2-5.9c-10.6,0-21.5,2-32.2,5.9l-0.2,0.1l-0.2,0.1
	l-182.6,68.1l-0.8,0.3l-0.8,0.3c-17,7-31,18.2-41.8,33.4c-11.2,15.8-17.1,34.4-17.1,53.8v137.7c0,80,23.4,154.4,69.4,221.1
	C468.1,848.2,484,867.1,501.2,883.8z"/>
<path class="st0" d="M965.9,544.6c-9.5-9.3-19.6-17.3-30.2-24.2v85.7c0,80-23.4,154.4-69.5,221.1c-14.5,21-30.4,39.9-47.6,56.6h8.8
	c53.5,0,99.7-19.4,138.5-58.2c38.8-38.8,58.2-84.9,58.2-138.5C1024.1,629.7,1004.7,582.2,965.9,544.6z"/>
<g>
	<path class="st0" d="M877,444.2c-5.2-7.3-11.7-12.5-19.7-15.8l-36.4-13.6l-146.2-54.5c-5.2-1.9-10.1-2.8-14.8-2.8
		c-4.7,0-9.6,0.9-14.8,2.8l-182.6,68.1c-8,3.3-14.5,8.5-19.7,15.8c-5.2,7.3-7.7,15.3-7.7,24.2v137.7c0,69.8,20.1,133.8,60.4,192.1
		c25,36.1,54.2,64.7,87.8,85.6c20.6,12.8,42.8,22.8,66.7,29.9c1.4,0.5,2.9,0.8,4.6,1.1c1.6,0.2,3.4,0.4,5.3,0.4l9.8-1.4
		c23.9-7.1,46.1-17.1,66.7-29.9c33.6-20.9,62.9-49.5,87.8-85.6c40.3-58.3,60.4-122.3,60.4-192.1V468.4
		C884.7,459.5,882.1,451.5,877,444.2z M774.4,578L644.5,707.9c-4.2,4.2-9.2,6.3-15.1,6.3c-5.8,0-10.9-2.1-15.1-6.3l-69.5-69.5
		c-4.2-4.2-6.3-9.4-6.3-15.5c0-6.1,2.1-11.2,6.3-15.5c4.2-4.2,9.4-6.3,15.5-6.3s11.2,2.1,15.5,6.3l55.5,55.5l114.5-114.5
		c3.7-3.8,8.5-5.6,14.4-5.6c5.9,0,10.7,1.9,14.4,5.6c3.8,3.8,5.6,8.7,5.6,14.8S778.2,574.2,774.4,578z"/>
</g>
</svg>
