<svg width="110" height="110" viewBox="0 0 110 110" fill="none" xmlns="http://www.w3.org/2000/svg">
    <g clip-path="url(#clip0_414_111)">
        <path d="M110 0H0V110H110V0Z" fill="#202226"/>
        <path d="M51.1501 75.3144C46.4751 78.8153 42.1052 81.1421 36.3936 82.7502C36.5085 82.7502 36.7663 82.7502 36.8608 82.7502C42.0944 82.7222 48.3002 81.5449 52.828 78.6252C52.1711 77.5739 51.6095 76.4659 51.1501 75.3144V75.3144ZM74.9505 69.4417C74.4435 67.5489 73.3059 65.8312 72.324 65.2587C73.3982 67.1794 73.6861 69.721 73.1028 71.8802C73.0502 72.081 72.9879 72.2787 72.9181 72.4731C72.687 73.1688 72.3151 73.8095 71.8256 74.3552C70.8233 75.5207 69.3742 76.6282 67.8692 77.1664C69.1275 77.2616 70.5745 77.1725 72.2102 76.8989L73.7345 76.6443C74.1045 75.8658 74.4322 75.068 74.7163 74.2542C75.2427 72.7449 75.3028 70.7093 74.9505 69.4417ZM70.1874 64.8086C68.7845 64.2564 66.7499 63.8557 64.8937 64.5443C63.5989 65.0529 62.4156 65.8089 61.41 66.7701C61.2768 68.7595 61.3652 70.4629 61.6753 71.8802C63.6862 69.9594 65.998 67.7616 68.9209 67.6907C69.6525 67.685 70.3802 67.796 71.0769 68.0194C70.8824 66.8012 70.8792 66.1513 70.1874 64.8086V64.8086ZM92.3894 34.4737C87.4404 38.5106 82.7214 39.0359 76.6112 39.674C74.7851 37.7973 73.25 35.1827 72.3144 32.7861C72.7741 36.2408 74.3554 39.124 76.159 41.8095C77.9626 44.4951 78.0593 46.9862 78.0539 49.9049C71.6666 50.7449 65.3781 51.6236 58.9983 52.5045C58.9285 50.2593 58.8018 48.9896 59.9651 46.5544C60.5549 45.3255 61.4153 42.2704 60.9233 40.4872C62.3886 40.5871 63.5906 41.4615 64.7991 42.1383C64.6262 40.0156 62.5529 38.7878 60.7633 38.1561C62.4251 37.9714 63.973 38.3796 65.4372 39.1476C64.1857 37.1066 61.9363 36.0399 59.5956 36.0324C61.0727 35.202 62.7108 35.2525 64.3157 35.6156C62.1587 33.4672 59.2261 33.639 56.6018 34.8003C57.6706 33.6133 59.0843 32.9354 60.5839 32.4692C57.7909 32.0664 53.8163 33.2888 52.9 34.188C51.9837 35.0871 51.0094 36.2687 51.8483 38.7631C49.5774 40.1767 48.1745 40.4302 47.212 37.6298C46.7576 39.8598 47.631 41.7204 49.2251 43.235C48.688 43.8613 48.3152 44.3608 49.8503 44.2018C51.3854 44.0428 53.8249 42.8 55.3524 41.9599C55.2601 43.8602 53.8732 44.9742 52.6078 46.3965C51.3424 47.8187 50.5818 50.1369 50.9965 52.1382C44.6242 51.3239 38.3207 50.4194 31.9302 49.6202C31.9216 46.6929 32.0279 44.1965 33.8305 41.5141C35.633 38.8318 37.2218 35.9486 37.6848 32.4907C36.7459 34.8873 35.2087 37.4998 33.3804 39.3743C27.2573 38.7298 22.5641 38.1733 17.6162 34.1192C20.1943 41.976 20.797 51.1563 17.6162 58.9605C18.8741 66.5467 21.261 74.3219 27.0489 79.7005C24.1174 74.2993 18.2274 61.4753 25.6127 56.8744C27.5549 56.1224 29.0728 59.4525 29.4079 60.8759C29.8451 57.8573 29.51 54.538 34.3858 55.2341C39.3272 55.9409 44.6575 61.2647 50.0275 62.4034C52.0589 76.8226 56.0056 85.4207 67.8596 80.9745C69.4671 80.3566 71.0265 79.6202 72.5249 78.7713C62.8419 80.3944 57.7114 76.2479 59.9898 62.7246C65.3341 61.6235 70.6762 56.247 75.6036 55.5273C80.472 54.8183 80.1411 58.128 80.5772 61.1455C80.9124 59.7157 82.427 56.3953 84.3703 57.1354C91.7652 61.6998 85.8742 74.5614 82.9545 79.9443C88.7359 74.556 91.1186 66.7851 92.3657 59.1969C89.1807 51.4152 89.8123 42.308 92.3894 34.4737ZM21.5317 51.3884C22.5039 47.5545 22.3353 43.2952 21.4243 39.4538C23.8542 41.1038 27.2616 41.3412 30.1255 41.3304C24.9864 42.1963 23.0786 46.9959 21.5317 51.3884ZM57.4214 37.0185L55.4975 39.1315L52.8936 39.3388L57.4214 37.0185Z"
              fill="url(#paint0_linear_414_111)"/>
        <path d="M51.1501 75.3144C46.4751 78.8153 42.1052 81.1421 36.3936 82.7502C36.5085 82.7502 36.7663 82.7502 36.8608 82.7502C42.0944 82.7222 48.3002 81.5449 52.828 78.6252C52.1711 77.5739 51.6095 76.4659 51.1501 75.3144V75.3144ZM74.9505 69.4417C74.4435 67.5489 73.3059 65.8312 72.324 65.2587C73.3982 67.1794 73.6861 69.721 73.1028 71.8802C73.0502 72.081 72.9879 72.2787 72.9181 72.4731C72.687 73.1688 72.3151 73.8095 71.8256 74.3552C70.8233 75.5207 69.3742 76.6282 67.8692 77.1664C69.1275 77.2616 70.5745 77.1725 72.2102 76.8989L73.7345 76.6443C74.1045 75.8658 74.4322 75.068 74.7163 74.2542C75.2427 72.7449 75.3028 70.7093 74.9505 69.4417ZM70.1874 64.8086C68.7845 64.2564 66.7499 63.8557 64.8937 64.5443C63.5989 65.0529 62.4156 65.8089 61.41 66.7701C61.2768 68.7595 61.3652 70.4629 61.6753 71.8802C63.6862 69.9594 65.998 67.7616 68.9209 67.6907C69.6525 67.685 70.3802 67.796 71.0769 68.0194C70.8824 66.8012 70.8792 66.1513 70.1874 64.8086V64.8086ZM92.3894 34.4737C87.4404 38.5106 82.7214 39.0359 76.6112 39.674C74.7851 37.7973 73.25 35.1827 72.3144 32.7861C72.7741 36.2408 74.3554 39.124 76.159 41.8095C77.9626 44.4951 78.0593 46.9862 78.0539 49.9049C71.6666 50.7449 65.3781 51.6236 58.9983 52.5045C58.9285 50.2593 58.8018 48.9896 59.9651 46.5544C60.5549 45.3255 61.4153 42.2704 60.9233 40.4872C62.3886 40.5871 63.5906 41.4615 64.7991 42.1383C64.6262 40.0156 62.5529 38.7878 60.7633 38.1561C62.4251 37.9714 63.973 38.3796 65.4372 39.1476C64.1857 37.1066 61.9363 36.0399 59.5956 36.0324C61.0727 35.202 62.7108 35.2525 64.3157 35.6156C62.1587 33.4672 59.2261 33.639 56.6018 34.8003C57.6706 33.6133 59.0843 32.9354 60.5839 32.4692C57.7909 32.0664 53.8163 33.2888 52.9 34.188C51.9837 35.0871 51.0094 36.2687 51.8483 38.7631C49.5774 40.1767 48.1745 40.4302 47.212 37.6298C46.7576 39.8598 47.631 41.7204 49.2251 43.235C48.688 43.8613 48.3152 44.3608 49.8503 44.2018C51.3854 44.0428 53.8249 42.8 55.3524 41.9599C55.2601 43.8602 53.8732 44.9742 52.6078 46.3965C51.3424 47.8187 50.5818 50.1369 50.9965 52.1382C44.6242 51.3239 38.3207 50.4194 31.9302 49.6202C31.9216 46.6929 32.0279 44.1965 33.8305 41.5141C35.633 38.8318 37.2218 35.9486 37.6848 32.4907C36.7459 34.8873 35.2087 37.4998 33.3804 39.3743C27.2573 38.7298 22.5641 38.1733 17.6162 34.1192C20.1943 41.976 20.797 51.1563 17.6162 58.9605C18.8741 66.5467 21.261 74.3219 27.0489 79.7005C24.1174 74.2993 18.2274 61.4753 25.6127 56.8744C27.5549 56.1224 29.0728 59.4525 29.4079 60.8759C29.8451 57.8573 29.51 54.538 34.3858 55.2341C39.3272 55.9409 44.6575 61.2647 50.0275 62.4034C52.0589 76.8226 56.0056 85.4207 67.8596 80.9745C69.4671 80.3566 71.0265 79.6202 72.5249 78.7713C62.8419 80.3944 57.7114 76.2479 59.9898 62.7246C65.3341 61.6235 70.6762 56.247 75.6036 55.5273C80.472 54.8183 80.1411 58.128 80.5772 61.1455C80.9124 59.7157 82.427 56.3953 84.3703 57.1354C91.7652 61.6998 85.8742 74.5614 82.9545 79.9443C88.7359 74.556 91.1186 66.7851 92.3657 59.1969C89.1807 51.4152 89.8123 42.308 92.3894 34.4737ZM21.5317 51.3884C22.5039 47.5545 22.3353 43.2952 21.4243 39.4538C23.8542 41.1038 27.2616 41.3412 30.1255 41.3304C24.9864 42.1963 23.0786 46.9959 21.5317 51.3884ZM57.4214 37.0185L55.4975 39.1315L52.8936 39.3388L57.4214 37.0185Z"
              fill="url(#paint1_linear_414_111)"/>
        <path d="M51.1501 75.3144C46.4751 78.8153 42.1052 81.1421 36.3936 82.7502C36.5085 82.7502 36.7663 82.7502 36.8608 82.7502C42.0944 82.7222 48.3002 81.5449 52.828 78.6252C52.1711 77.5739 51.6095 76.4659 51.1501 75.3144V75.3144ZM74.9505 69.4417C74.4435 67.5489 73.3059 65.8312 72.324 65.2587C73.3982 67.1794 73.6861 69.721 73.1028 71.8802C73.0502 72.081 72.9879 72.2787 72.9181 72.4731C72.687 73.1688 72.3151 73.8095 71.8256 74.3552C70.8233 75.5207 69.3742 76.6282 67.8692 77.1664C69.1275 77.2616 70.5745 77.1725 72.2102 76.8989L73.7345 76.6443C74.1045 75.8658 74.4322 75.068 74.7163 74.2542C75.2427 72.7449 75.3028 70.7093 74.9505 69.4417ZM70.1874 64.8086C68.7845 64.2564 66.7499 63.8557 64.8937 64.5443C63.5989 65.0529 62.4156 65.8089 61.41 66.7701C61.2768 68.7595 61.3652 70.4629 61.6753 71.8802C63.6862 69.9594 65.998 67.7616 68.9209 67.6907C69.6525 67.685 70.3802 67.796 71.0769 68.0194C70.8824 66.8012 70.8792 66.1513 70.1874 64.8086V64.8086ZM92.3894 34.4737C87.4404 38.5106 82.7214 39.0359 76.6112 39.674C74.7851 37.7973 73.25 35.1827 72.3144 32.7861C72.7741 36.2408 74.3554 39.124 76.159 41.8095C77.9626 44.4951 78.0593 46.9862 78.0539 49.9049C71.6666 50.7449 65.3781 51.6236 58.9983 52.5045C58.9285 50.2593 58.8018 48.9896 59.9651 46.5544C60.5549 45.3255 61.4153 42.2704 60.9233 40.4872C62.3886 40.5871 63.5906 41.4615 64.7991 42.1383C64.6262 40.0156 62.5529 38.7878 60.7633 38.1561C62.4251 37.9714 63.973 38.3796 65.4372 39.1476C64.1857 37.1066 61.9363 36.0399 59.5956 36.0324C61.0727 35.202 62.7108 35.2525 64.3157 35.6156C62.1587 33.4672 59.2261 33.639 56.6018 34.8003C57.6706 33.6133 59.0843 32.9354 60.5839 32.4692C57.7909 32.0664 53.8163 33.2888 52.9 34.188C51.9837 35.0871 51.0094 36.2687 51.8483 38.7631C49.5774 40.1767 48.1745 40.4302 47.212 37.6298C46.7576 39.8598 47.631 41.7204 49.2251 43.235C48.688 43.8613 48.3152 44.3608 49.8503 44.2018C51.3854 44.0428 53.8249 42.8 55.3524 41.9599C55.2601 43.8602 53.8732 44.9742 52.6078 46.3965C51.3424 47.8187 50.5818 50.1369 50.9965 52.1382C44.6242 51.3239 38.3207 50.4194 31.9302 49.6202C31.9216 46.6929 32.0279 44.1965 33.8305 41.5141C35.633 38.8318 37.2218 35.9486 37.6848 32.4907C36.7459 34.8873 35.2087 37.4998 33.3804 39.3743C27.2573 38.7298 22.5641 38.1733 17.6162 34.1192C20.1943 41.976 20.797 51.1563 17.6162 58.9605C18.8741 66.5467 21.261 74.3219 27.0489 79.7005C24.1174 74.2993 18.2274 61.4753 25.6127 56.8744C27.5549 56.1224 29.0728 59.4525 29.4079 60.8759C29.8451 57.8573 29.51 54.538 34.3858 55.2341C39.3272 55.9409 44.6575 61.2647 50.0275 62.4034C52.0589 76.8226 56.0056 85.4207 67.8596 80.9745C69.4671 80.3566 71.0265 79.6202 72.5249 78.7713C62.8419 80.3944 57.7114 76.2479 59.9898 62.7246C65.3341 61.6235 70.6762 56.247 75.6036 55.5273C80.472 54.8183 80.1411 58.128 80.5772 61.1455C80.9124 59.7157 82.427 56.3953 84.3703 57.1354C91.7652 61.6998 85.8742 74.5614 82.9545 79.9443C88.7359 74.556 91.1186 66.7851 92.3657 59.1969C89.1807 51.4152 89.8123 42.308 92.3894 34.4737ZM21.5317 51.3884C22.5039 47.5545 22.3353 43.2952 21.4243 39.4538C23.8542 41.1038 27.2616 41.3412 30.1255 41.3304C24.9864 42.1963 23.0786 46.9959 21.5317 51.3884ZM57.4214 37.0185L55.4975 39.1315L52.8936 39.3388L57.4214 37.0185Z"
              fill="url(#paint2_linear_414_111)"/>
        <path d="M55 3.22266C66.9452 3.23029 78.5206 7.36679 87.7653 14.9314C97.0099 22.4961 103.356 33.0238 105.727 44.7312C108.099 56.4386 106.351 68.606 100.779 79.1721C95.2069 89.7382 86.1539 98.0534 75.1534 102.709C62.5038 108.034 48.2579 108.12 35.5449 102.949C22.8319 97.7771 12.6913 87.771 7.35071 75.1281C2.01008 62.4852 1.90608 48.2394 7.06156 35.5199C12.217 22.8004 22.2104 12.6473 34.8466 7.29072C41.2223 4.59253 48.0769 3.20888 55 3.22266M55 0C24.6243 0 0 24.6243 0 55C0 85.3757 24.6243 110 55 110C85.3757 110 110 85.3757 110 55C110 24.6243 85.3757 0 55 0Z"
              fill="url(#paint3_linear_414_111)"/>
        <path d="M55 3.22266C66.9452 3.23029 78.5206 7.36679 87.7653 14.9314C97.0099 22.4961 103.356 33.0238 105.727 44.7312C108.099 56.4386 106.351 68.606 100.779 79.1721C95.2069 89.7382 86.1539 98.0534 75.1534 102.709C62.5038 108.034 48.2579 108.12 35.5449 102.949C22.8319 97.7771 12.6913 87.771 7.35071 75.1281C2.01008 62.4852 1.90608 48.2394 7.06156 35.5199C12.217 22.8004 22.2104 12.6473 34.8466 7.29072C41.2223 4.59253 48.0769 3.20888 55 3.22266M55 0C24.6243 0 0 24.6243 0 55C0 85.3757 24.6243 110 55 110C85.3757 110 110 85.3757 110 55C110 24.6243 85.3757 0 55 0Z"
              fill="url(#paint4_linear_414_111)"/>
        <path d="M55 3.22266C66.9452 3.23029 78.5206 7.36679 87.7653 14.9314C97.0099 22.4961 103.356 33.0238 105.727 44.7312C108.099 56.4386 106.351 68.606 100.779 79.1721C95.2069 89.7382 86.1539 98.0534 75.1534 102.709C62.5038 108.034 48.2579 108.12 35.5449 102.949C22.8319 97.7771 12.6913 87.771 7.35071 75.1281C2.01008 62.4852 1.90608 48.2394 7.06156 35.5199C12.217 22.8004 22.2104 12.6473 34.8466 7.29072C41.2223 4.59253 48.0769 3.20888 55 3.22266M55 0C24.6243 0 0 24.6243 0 55C0 85.3757 24.6243 110 55 110C85.3757 110 110 85.3757 110 55C110 24.6243 85.3757 0 55 0Z"
              fill="url(#paint5_linear_414_111)"/>
    </g>
    <defs>
        <linearGradient id="paint0_linear_414_111" x1="79.4601" y1="76.8398" x2="26.6407" y2="24.0216"
                        gradientUnits="userSpaceOnUse">
            <stop stop-color="white"/>
            <stop offset="1" stop-color="#E2D5E8"/>
        </linearGradient>
        <linearGradient id="paint1_linear_414_111" x1="21.7348" y1="35.6693" x2="86.798" y2="72.3582"
                        gradientUnits="userSpaceOnUse">
            <stop stop-color="white" stop-opacity="0"/>
            <stop offset="1" stop-color="#D0D3E9"/>
        </linearGradient>
        <linearGradient id="paint2_linear_414_111" x1="57.3215" y1="50.0069" x2="81.6192" y2="25.7102"
                        gradientUnits="userSpaceOnUse">
            <stop stop-color="white" stop-opacity="0"/>
            <stop offset="1" stop-color="#55A5E9" stop-opacity="0.1"/>
        </linearGradient>
        <linearGradient id="paint3_linear_414_111" x1="93.891" y1="93.891" x2="16.109" y2="16.109"
                        gradientUnits="userSpaceOnUse">
            <stop stop-color="white"/>
            <stop offset="1" stop-color="#E2D5E8"/>
        </linearGradient>
        <linearGradient id="paint4_linear_414_111" x1="0" y1="55" x2="110" y2="55" gradientUnits="userSpaceOnUse">
            <stop stop-color="white" stop-opacity="0"/>
            <stop offset="1" stop-color="#D0D3E9"/>
        </linearGradient>
        <linearGradient id="paint5_linear_414_111" x1="0" y1="55" x2="110" y2="55" gradientUnits="userSpaceOnUse">
            <stop stop-color="white" stop-opacity="0"/>
            <stop offset="1" stop-color="#55A5E9" stop-opacity="0.1"/>
        </linearGradient>
        <clipPath id="clip0_414_111">
            <rect width="110" height="110" rx="55" fill="white"/>
        </clipPath>
    </defs>
</svg>
