<svg width="110" height="110" viewBox="0 0 110 110" fill="none" xmlns="http://www.w3.org/2000/svg">
<rect x="1.5" y="1.5" width="107" height="107" rx="53.5" fill="#1A1A1A"/>
<path d="M92.2078 70.5412V39.7414C92.2078 36.0501 90.2387 32.6332 87.0345 30.7876L60.3651 15.3842C57.1678 13.5386 53.2226 13.5386 50.0253 15.3842L23.3491 30.7807C20.1518 32.6264 18.1758 36.0432 18.1758 39.7345V70.5343C18.1758 74.2257 20.1449 77.6425 23.3491 79.4882L50.0253 94.8915C53.2226 96.7372 57.1678 96.7372 60.3651 94.8915L87.0414 79.4882C90.2387 77.6425 92.2147 74.2257 92.2147 70.5343L92.2078 70.5412Z" stroke="url(#paint0_linear_414_103)" stroke-width="3" stroke-miterlimit="10"/>
<g filter="url(#filter0_d_414_103)">
<path d="M64.4612 78.3422C61.9775 72.819 59.5212 66.5753 57.3393 59.6387C54.142 49.4978 52.2415 40.1461 51.1025 32.0293" stroke="url(#paint1_linear_414_103)" stroke-width="3" stroke-miterlimit="10" stroke-linecap="round"/>
<path d="M45.7576 78.3423C48.0561 75.0489 51.0132 69.9579 52.8795 63.1997C54.2174 58.3625 54.6153 54.0537 54.6634 50.7329" stroke="url(#paint2_linear_414_103)" stroke-width="3" stroke-miterlimit="10" stroke-linecap="round"/>
</g>
<rect x="1.5" y="1.5" width="107" height="107" rx="53.5" stroke="url(#paint3_radial_414_103)" stroke-width="3"/>
<defs>
<filter id="filter0_d_414_103" x="32.2573" y="18.5291" width="45.7043" height="73.3135" filterUnits="userSpaceOnUse" color-interpolation-filters="sRGB">
<feFlood flood-opacity="0" result="BackgroundImageFix"/>
<feColorMatrix in="SourceAlpha" type="matrix" values="0 0 0 0 0 0 0 0 0 0 0 0 0 0 0 0 0 0 127 0" result="hardAlpha"/>
<feOffset/>
<feGaussianBlur stdDeviation="6"/>
<feColorMatrix type="matrix" values="0 0 0 0 0 0 0 0 0 0 0 0 0 0 0 0 0 0 0.75 0"/>
<feBlend mode="normal" in2="BackgroundImageFix" result="effect1_dropShadow_414_103"/>
<feBlend mode="normal" in="SourceGraphic" in2="effect1_dropShadow_414_103" result="shape"/>
</filter>
<linearGradient id="paint0_linear_414_103" x1="26.1142" y1="26.0671" x2="84.2626" y2="84.2155" gradientUnits="userSpaceOnUse">
<stop stop-color="#84A98C"/>
<stop offset="0.15" stop-color="#7FA489"/>
<stop offset="0.31" stop-color="#719681"/>
<stop offset="0.49" stop-color="#5A8073"/>
<stop offset="0.54" stop-color="#52796F"/>
<stop offset="0.89" stop-color="#3C5959"/>
<stop offset="1" stop-color="#354F52"/>
</linearGradient>
<linearGradient id="paint1_linear_414_103" x1="42.135" y1="39.5423" x2="73.4288" y2="70.8292" gradientUnits="userSpaceOnUse">
<stop stop-color="#84A98C"/>
<stop offset="0.15" stop-color="#7FA489"/>
<stop offset="0.31" stop-color="#719681"/>
<stop offset="0.49" stop-color="#5A8073"/>
<stop offset="0.54" stop-color="#52796F"/>
<stop offset="0.89" stop-color="#3C5959"/>
<stop offset="1" stop-color="#354F52"/>
</linearGradient>
<linearGradient id="paint2_linear_414_103" x1="44.8039" y1="59.131" x2="55.6171" y2="69.9442" gradientUnits="userSpaceOnUse">
<stop stop-color="#84A98C"/>
<stop offset="0.15" stop-color="#7FA489"/>
<stop offset="0.31" stop-color="#719681"/>
<stop offset="0.49" stop-color="#5A8073"/>
<stop offset="0.54" stop-color="#52796F"/>
<stop offset="0.89" stop-color="#3C5959"/>
<stop offset="1" stop-color="#354F52"/>
</linearGradient>
<radialGradient id="paint3_radial_414_103" cx="0" cy="0" r="1" gradientUnits="userSpaceOnUse" gradientTransform="translate(55 55) rotate(40.9144) scale(59.5483)">
<stop stop-color="#84A98C"/>
<stop offset="1" stop-color="#365053"/>
</radialGradient>
</defs>
</svg>
