<?xml version="1.0" encoding="utf-8"?>
<!-- Generator: Adobe Illustrator 26.0.1, SVG Export Plug-In . SVG Version: 6.00 Build 0)  -->
<svg version="1.1" id="Layer_1" xmlns="http://www.w3.org/2000/svg" x="0px" y="0px"
     viewBox="0 0 24 24" style="enable-background:new 0 0 24 24;" xml:space="preserve">
<style type="text/css">
	.st0{fill:url(#SVGID_1_);}
	.st1{fill:#FFFFFF;}
</style>
<linearGradient id="SVGID_1_" gradientUnits="userSpaceOnUse" x1="12.05" y1="1.1" x2="12.05" y2="25" gradientTransform="matrix(1 0 0 -1 0 25)">
	<stop  offset="0" style="stop-color:#5BFFCF"/>
	<stop  offset="1" style="stop-color:#73B4FF"/>
</linearGradient>
<path class="st0" d="M12,0C5.2,0,0,5,0,11.6c0,3.5,1.4,6.5,3.8,8.6c0.2,0.2,0.3,0.4,0.3,0.7L4.2,23c0,0.5,0.5,0.9,1,0.9
	c0.1,0,0.2,0,0.4-0.1l2.4-1c0.2-0.1,0.4-0.1,0.6,0c1.1,0.3,2.3,0.5,3.5,0.5c6.8,0,12-5,12-11.6S18.8,0,12,0z"/>
<path class="st1" d="M4.8,15l3.5-5.6c0.5-0.8,1.6-1.1,2.5-0.6l0.1,0.1l2.8,2.1c0.3,0.2,0.6,0.2,0.9,0l3.8-2.9
	c0.5-0.4,1.2,0.2,0.8,0.8l-3.5,5.6c-0.5,0.8-1.6,1.1-2.5,0.6L13.1,15l-2.8-2.1c-0.3-0.2-0.6-0.2-0.9,0l-3.8,2.9
	C5.1,16.2,4.5,15.6,4.8,15L4.8,15z"/>
</svg>
