<svg xmlns="http://www.w3.org/2000/svg" xmlns:xlink="http://www.w3.org/1999/xlink" width="0" height="0" style="display:none;"><symbol viewBox="0 0 24 24" id="arrow-up-fill"><path d="M13 12V20H11V12H4L12 4L20 12H13Z"></path></symbol><symbol viewBox="0 0 24 24" id="arrow-right-fill"><path d="M12 13H4V11H12V4L20 12L12 20V13Z"></path></symbol><symbol viewBox="0 0 24 24" id="arrow-down-fill"><path d="M13 12H20L12 20L4 12H11V4H13V12Z"></path></symbol><symbol viewBox="0 0 24 24" id="arrow-left-fill"><path d="M12 13V20L4 12L12 4V11H20V13H12Z"></path></symbol><symbol viewBox="0 0 24 24" id="corner-down-right-fill"><path d="M5.00014 13.9999L5 5.00003L7 5L7.00011 11.9999L14.5862 12V6.58581L21.0004 13L14.5862 19.4142L14.5862 14L5.00014 13.9999Z"></path></symbol><symbol viewBox="0 0 24 24" id="corner-down-left-fill"><path d="M19.0003 13.9999L19.0004 5.00003L17.0004 5L17.0003 11.9999L9.41421 12V6.58581L3 13L9.41421 19.4142L9.41421 14L19.0003 13.9999Z"></path></symbol><symbol viewBox="0 0 24 24" id="arrow-up-s-fill"><path d="M12 8L18 14H6L12 8Z"></path></symbol><symbol viewBox="0 0 24 24" id="arrow-right-s-fill"><path d="M16 12L10 18V6L16 12Z"></path></symbol><symbol viewBox="0 0 24 24" id="arrow-down-s-fill"><path d="M12 16L6 10H18L12 16Z"></path></symbol><symbol viewBox="0 0 24 24" id="arrow-left-s-fill"><path d="M8 12L14 6V18L8 12Z"></path></symbol><symbol viewBox="0 0 24 24" id="arrow-left-right-line"><path d="M16.0503 12.0498L21 16.9996L16.0503 21.9493L14.636 20.5351L17.172 17.9988L4 17.9996V15.9996L17.172 15.9988L14.636 13.464L16.0503 12.0498ZM7.94975 2.0498L9.36396 3.46402L6.828 5.9988L20 5.99955V7.99955L6.828 7.9988L9.36396 10.5351L7.94975 11.9493L3 6.99955L7.94975 2.0498Z"></path></symbol><symbol viewBox="0 0 24 24" id="arrow-drop-up-fill"><path d="M12 10L16 14H8L12 10Z"></path></symbol><symbol viewBox="0 0 24 24" id="arrow-drop-right-fill"><path d="M14 12L10 16V8L14 12Z"></path></symbol><symbol viewBox="0 0 24 24" id="arrow-drop-down-fill"><path d="M12 14L8 10H16L12 14Z"></path></symbol><symbol viewBox="0 0 24 24" id="arrow-drop-left-fill"><path d="M9 12L13 8V16L9 12Z"></path></symbol><symbol viewBox="0 0 24 24" id="home-7-fill"><path d="M20 20.0001C20 20.5524 19.5523 21.0001 19 21.0001H5C4.44772 21.0001 4 20.5524 4 20.0001V11.0001L1 11.0001L11.3273 1.61162C11.7087 1.26488 12.2913 1.26488 12.6727 1.61162L23 11.0001L20 11.0001V20.0001ZM12 15.0001C13.3807 15.0001 14.5 13.8808 14.5 12.5001C14.5 11.1194 13.3807 10.0001 12 10.0001C10.6193 10.0001 9.5 11.1194 9.5 12.5001C9.5 13.8808 10.6193 15.0001 12 15.0001Z"></path></symbol><symbol viewBox="0 0 24 24" id="mail-lock-fill"><path d="M22 11.9996C21.1643 11.3719 20.1256 11 19 11C16.581 11 14.5633 12.7178 14.1 15H13V21H3C2.44772 21 2 20.5523 2 20V4C2 3.44772 2.44772 3 3 3H21C21.5523 3 22 3.44772 22 4V11.9996ZM12.0606 11.6829L5.64722 6.2377L4.35278 7.7623L12.0731 14.3171L19.6544 7.75616L18.3456 6.24384L12.0606 11.6829ZM22 17H23V22H15V17H16V16C16 14.3431 17.3431 13 19 13C20.6569 13 22 14.3431 22 16V17ZM20 17V16C20 15.4477 19.5523 15 19 15C18.4477 15 18 15.4477 18 16V17H20Z"></path></symbol><symbol viewBox="0 0 24 24" id="mail-fill"><path d="M3 3H21C21.5523 3 22 3.44772 22 4V20C22 20.5523 21.5523 21 21 21H3C2.44772 21 2 20.5523 2 20V4C2 3.44772 2.44772 3 3 3ZM12.0606 11.6829L5.64722 6.2377L4.35278 7.7623L12.0731 14.3171L19.6544 7.75616L18.3456 6.24384L12.0606 11.6829Z"></path></symbol><symbol viewBox="0 0 24 24" id="mail-unread-fill"><path d="M18.8032 8.4928C19.4663 8.81764 20.2118 9 21 9C21.3425 9 21.6769 8.96557 22 8.89998V20C22 20.5523 21.5523 21 21 21H3C2.44772 21 2 20.5523 2 20V4C2 3.44772 2.44772 3 3 3H16.1C16.0344 3.32311 16 3.65753 16 4C16 5.23672 16.449 6.36857 17.1929 7.24142L12.0606 11.6829L5.64722 6.2377L4.35278 7.7623L12.0731 14.3171L18.8032 8.4928ZM21 7C19.3431 7 18 5.65685 18 4C18 2.34315 19.3431 1 21 1C22.6569 1 24 2.34315 24 4C24 5.65685 22.6569 7 21 7Z"></path></symbol><symbol viewBox="0 0 24 24" id="inbox-fill"><path d="M3 3H21C21.5523 3 22 3.44772 22 4V20C22 20.5523 21.5523 21 21 21H3C2.44772 21 2 20.5523 2 20V4C2 3.44772 2.44772 3 3 3ZM9 12C9 13.6569 10.3431 15 12 15C13.6569 15 15 13.6569 15 12H20V5H4V12H9Z"></path></symbol><symbol viewBox="0 0 24 24" id="cloud-fill"><path d="M17 7C13.5705 7 10.6449 9.15804 9.50734 12.1903L11.3805 12.8927C12.2337 10.6185 14.4278 9 17 9C17.6983 9 18.3687 9.11928 18.992 9.33857C21.3265 10.16 23 12.3846 23 15C23 18.3137 20.3137 21 17 21H7C3.68629 21 1 18.3137 1 15C1 12.3846 2.67346 10.16 5.00804 9.33857C5.0027 9.22639 5 9.11351 5 9C5 5.13401 8.13401 2 12 2C15.242 2 17.9693 4.20399 18.7652 7.19539C18.1973 7.0675 17.6065 7 17 7Z"></path></symbol><symbol viewBox="0 0 24 24" id="cloud-off-fill"><path d="M3.51472 2.10051L22.6066 21.1924L21.1924 22.6066L19.1782 20.5924C18.503 20.8556 17.7684 21 17 21H7C3.68629 21 1 18.3137 1 15C1 12.3846 2.67346 10.16 5.00804 9.33857C5.0027 9.22639 5 9.11351 5 9C5 8.22228 5.12683 7.47418 5.36094 6.77527L2.10051 3.51472L3.51472 2.10051ZM17 9C17.6983 9 18.3687 9.11928 18.992 9.33857C21.3265 10.16 23 12.3846 23 15C23 16.0883 22.7103 17.1089 22.2037 17.9889L14.0109 9.79638C14.891 9.28977 15.9117 9 17 9ZM12 2C15.242 2 17.9693 4.20399 18.7652 7.19539C18.1973 7.0675 17.6065 7 17 7C15.357 7 13.8297 7.49529 12.5592 8.34471L7.69418 3.48056C8.88169 2.55284 10.3763 2 12 2Z"></path></symbol><symbol viewBox="0 0 24 24" id="bar-chart-2-fill"><path d="M2 13H8V21H2V13ZM9 3H15V21H9V3ZM16 8H22V21H16V8Z"></path></symbol><symbol viewBox="0 0 24 24" id="pie-chart-2-fill"><path d="M11 2.04947V13.0001H21.9506C21.4489 18.0534 17.1853 22.0001 12 22.0001C6.47715 22.0001 2 17.5229 2 12.0001C2 6.81475 5.94668 2.55119 11 2.04947ZM13 0.542969C18.5535 1.02133 22.9788 5.44662 23.4571 11.0001H13V0.542969Z"></path></symbol><symbol viewBox="0 0 24 24" id="bookmark-fill"><path d="M5 2H19C19.5523 2 20 2.44772 20 3V22.1433C20 22.4194 19.7761 22.6434 19.5 22.6434C19.4061 22.6434 19.314 22.6168 19.2344 22.5669L12 18.0313L4.76559 22.5669C4.53163 22.7136 4.22306 22.6429 4.07637 22.4089C4.02647 22.3293 4 22.2373 4 22.1433V3C4 2.44772 4.44772 2 5 2Z"></path></symbol><symbol viewBox="0 0 24 24" id="flag-fill"><path d="M3 3H12.382C12.7607 3 13.107 3.214 13.2764 3.55279L14 5H20C20.5523 5 21 5.44772 21 6V17C21 17.5523 20.5523 18 20 18H13.618C13.2393 18 12.893 17.786 12.7236 17.4472L12 16H5V22H3V3Z"></path></symbol><symbol viewBox="0 0 24 24" id="send-plane-fill"><path d="M1.94631 9.31555C1.42377 9.14137 1.41965 8.86034 1.95706 8.6812L21.0433 2.31913C21.5717 2.14297 21.8748 2.43878 21.7268 2.95706L16.2736 22.0433C16.1226 22.5718 15.8179 22.5901 15.5946 22.0877L12.0002 14.0002L18.0002 6.00017L10.0002 12.0002L1.94631 9.31555Z"></path></symbol><symbol viewBox="0 0 24 24" id="printer-fill"><path d="M7 17H17V22H7V17ZM19 20V15H5V20H3C2.44772 20 2 19.5523 2 19V9C2 8.44772 2.44772 8 3 8H21C21.5523 8 22 8.44772 22 9V19C22 19.5523 21.5523 20 21 20H19ZM5 10V12H8V10H5ZM7 2H17C17.5523 2 18 2.44772 18 3V6H6V3C6 2.44772 6.44772 2 7 2Z"></path></symbol><symbol viewBox="0 0 24 24" id="stack-fill"><path d="M20.0833 10.4998L21.2854 11.2211C21.5221 11.3632 21.5989 11.6703 21.4569 11.9071C21.4146 11.9774 21.3557 12.0363 21.2854 12.0786L11.9999 17.6498L2.71451 12.0786C2.47772 11.9365 2.40093 11.6294 2.54301 11.3926C2.58523 11.3222 2.64413 11.2633 2.71451 11.2211L3.9166 10.4998L11.9999 15.3498L20.0833 10.4998ZM20.0833 15.1998L21.2854 15.9211C21.5221 16.0632 21.5989 16.3703 21.4569 16.6071C21.4146 16.6774 21.3557 16.7363 21.2854 16.7786L12.5144 22.0411C12.1977 22.2311 11.8021 22.2311 11.4854 22.0411L2.71451 16.7786C2.47772 16.6365 2.40093 16.3294 2.54301 16.0926C2.58523 16.0222 2.64413 15.9633 2.71451 15.9211L3.9166 15.1998L11.9999 20.0498L20.0833 15.1998ZM12.5144 1.30852L21.2854 6.57108C21.5221 6.71315 21.5989 7.02028 21.4569 7.25707C21.4146 7.32745 21.3557 7.38635 21.2854 7.42857L11.9999 12.9998L2.71451 7.42857C2.47772 7.2865 2.40093 6.97937 2.54301 6.74258C2.58523 6.6722 2.64413 6.6133 2.71451 6.57108L11.4854 1.30852C11.8021 1.11851 12.1977 1.11851 12.5144 1.30852Z"></path></symbol><symbol viewBox="0 0 24 24" id="advertisement-fill"><path d="M7.55197 13 8.39897 10.8852 9.24398 13H7.55197ZM16 12H17V14H16C15.4477 14 15 13.5523 15 13 15 12.4477 15.4477 12 16 12ZM21 3H3C2.44772 3 2 3.44772 2 4V20C2 20.5523 2.44772 21 3 21H21C21.5523 21 22 20.5523 22 20V4C22 3.44772 21.5523 3 21 3ZM12.598 16H10.443L10.043 15H6.75297L6.35297 16H4.19897L5.39797 13.002 5.39897 13 7.39897 8H9.39897L12.598 16ZM17 8H19V16H16C14.3431 16 13 14.6569 13 13 13 11.3431 14.3431 10 16 10H17V8Z"></path></symbol><symbol viewBox="0 0 24 24" id="chat-3-fill"><path d="M7.29117 20.8242L2 22L3.17581 16.7088C2.42544 15.3056 2 13.7025 2 12C2 6.47715 6.47715 2 12 2C17.5228 2 22 6.47715 22 12C22 17.5228 17.5228 22 12 22C10.2975 22 8.6944 21.5746 7.29117 20.8242Z"></path></symbol><symbol viewBox="0 0 24 24" id="pencil-fill"><path d="M12.8995 6.85431L17.1421 11.0969L7.24264 20.9964H3V16.7538L12.8995 6.85431ZM14.3137 5.44009L16.435 3.31877C16.8256 2.92825 17.4587 2.92825 17.8492 3.31877L20.6777 6.1472C21.0682 6.53772 21.0682 7.17089 20.6777 7.56141L18.5563 9.68273L14.3137 5.44009Z"></path></symbol><symbol viewBox="0 0 24 24" id="brush-fill"><path d="M13.2886 6.21289L18.2278 2.3713C18.6259 2.06168 19.1922 2.09694 19.5488 2.45355L22.543 5.44774C22.8997 5.80435 22.9349 6.3707 22.6253 6.76879L18.7847 11.7067C19.0778 12.895 19.0836 14.1719 18.7444 15.4377C17.8463 18.7896 14.8142 20.9984 11.5016 20.9984C8 20.9984 3.5 19.4966 1 17.9966C4.97978 14.9966 4.04722 13.1864 4.5 11.4966C5.55843 7.54646 9.34224 5.23923 13.2886 6.21289ZM16.7015 8.09149C16.7673 8.15494 16.8319 8.21952 16.8952 8.2852L18.0297 9.41972L20.5046 6.23774L18.7589 4.49198L15.5769 6.96685L16.7015 8.09149Z"></path></symbol><symbol viewBox="0 0 24 24" id="crosshair-2-line"><path d="M11 5.07089C7.93431 5.5094 5.5094 7.93431 5.07089 11H7V13H5.07089C5.5094 16.0657 7.93431 18.4906 11 18.9291V17H13V18.9291C16.0657 18.4906 18.4906 16.0657 18.9291 13H17V11H18.9291C18.4906 7.93431 16.0657 5.5094 13 5.07089V7H11V5.07089ZM3.05493 11C3.51608 6.82838 6.82838 3.51608 11 3.05493V1H13V3.05493C17.1716 3.51608 20.4839 6.82838 20.9451 11H23V13H20.9451C20.4839 17.1716 17.1716 20.4839 13 20.9451V23H11V20.9451C6.82838 20.4839 3.51608 17.1716 3.05493 13H1V11H3.05493ZM14 12C14 13.1046 13.1046 14 12 14C10.8954 14 10 13.1046 10 12C10 10.8954 10.8954 10 12 10C13.1046 10 14 10.8954 14 12Z"></path></symbol><symbol viewBox="0 0 24 24" id="braces-fill"><path d="M4 18V14.3C4 13.4716 3.32843 12.8 2.5 12.8H2V11.2H2.5C3.32843 11.2 4 10.5284 4 9.7V6C4 4.34315 5.34315 3 7 3H8V5H7C6.44772 5 6 5.44772 6 6V10.1C6 10.9858 5.42408 11.7372 4.62623 12C5.42408 12.2628 6 13.0142 6 13.9V18C6 18.5523 6.44772 19 7 19H8V21H7C5.34315 21 4 19.6569 4 18ZM20 14.3V18C20 19.6569 18.6569 21 17 21H16V19H17C17.5523 19 18 18.5523 18 18V13.9C18 13.0142 18.5759 12.2628 19.3738 12C18.5759 11.7372 18 10.9858 18 10.1V6C18 5.44772 17.5523 5 17 5H16V3H17C18.6569 3 20 4.34315 20 6V9.7C20 10.5284 20.6716 11.2 21.5 11.2H22V12.8H21.5C20.6716 12.8 20 13.4716 20 14.3Z"></path></symbol><symbol viewBox="0 0 24 24" id="database-2-fill"><path d="M21 9.5V12.5C21 14.9853 16.9706 17 12 17C7.02944 17 3 14.9853 3 12.5V9.5C3 11.9853 7.02944 14 12 14C16.9706 14 21 11.9853 21 9.5ZM3 14.5C3 16.9853 7.02944 19 12 19C16.9706 19 21 16.9853 21 14.5V17.5C21 19.9853 16.9706 22 12 22C7.02944 22 3 19.9853 3 17.5V14.5ZM12 12C7.02944 12 3 9.98528 3 7.5C3 5.01472 7.02944 3 12 3C16.9706 3 21 5.01472 21 7.5C21 9.98528 16.9706 12 12 12Z"></path></symbol><symbol viewBox="0 0 24 24" id="server-fill"><path d="M4 3H20C20.5523 3 21 3.44772 21 4V11H3V4C3 3.44772 3.44772 3 4 3ZM3 13H21V20C21 20.5523 20.5523 21 20 21H4C3.44772 21 3 20.5523 3 20V13ZM7 16V18H10V16H7ZM7 6V8H10V6H7Z"></path></symbol><symbol viewBox="0 0 24 24" id="instance-fill"><path d="M12 1L21.5 6.5V17.5L12 23L2.5 17.5V6.5L12 1ZM6.49896 9.97089L11 12.5768V17.6252H13V12.5768L17.501 9.9709L16.499 8.24005L12 10.8447L7.50104 8.24004L6.49896 9.97089Z"></path></symbol><symbol viewBox="0 0 24 24" id="save-2-fill"><path d="M4 3H17L20.7071 6.70711C20.8946 6.89464 21 7.149 21 7.41421V20C21 20.5523 20.5523 21 20 21H4C3.44772 21 3 20.5523 3 20V4C3 3.44772 3.44772 3 4 3ZM12 18C13.6569 18 15 16.6569 15 15C15 13.3431 13.6569 12 12 12C10.3431 12 9 13.3431 9 15C9 16.6569 10.3431 18 12 18ZM5 5V9H15V5H5Z"></path></symbol><symbol viewBox="0 0 24 24" id="fingerprint-fill"><path d="M17.0003 13V14C17.0003 16.7696 16.3364 19.445 15.0853 21.8455L14.8585 22.2663L13.1116 21.2924C14.2716 19.2115 14.9211 16.8817 14.9935 14.4559L15.0003 14V13H17.0003ZM11.0003 10H13.0003V14L12.9948 14.3787C12.9153 17.1495 11.9645 19.7731 10.3038 21.928L10.073 22.2189L8.52406 20.9536C10.0408 19.0969 10.9145 16.8017 10.9943 14.3663L11.0003 14V10ZM12.0003 6C14.7617 6 17.0003 8.23858 17.0003 11H15.0003C15.0003 9.34315 13.6571 8 12.0003 8C10.3434 8 9.00025 9.34315 9.00025 11V14C9.00025 16.2354 8.1806 18.3444 6.72928 19.9768L6.51767 20.2067L5.06955 18.8273C6.23328 17.6056 6.92099 16.0118 6.99381 14.3027L7.00025 14V11C7.00025 8.23858 9.23883 6 12.0003 6ZM12.0003 2C16.9708 2 21.0003 6.02944 21.0003 11V14C21.0003 15.6979 20.7985 17.3699 20.4035 18.9903L20.2647 19.5285L18.3349 19.0032C18.726 17.5662 18.9475 16.0808 18.9919 14.5684L19.0003 14V11C19.0003 7.13401 15.8662 4 12.0003 4C10.4279 4 8.97663 4.51841 7.80805 5.39364L6.38308 3.96769C7.92267 2.73631 9.87547 2 12.0003 2ZM4.96794 5.38282L6.39389 6.8078C5.5635 7.91652 5.0543 9.27971 5.00431 10.7593L4.99961 10.999L5.00378 13C5.00378 14.1195 4.73991 15.2026 4.24263 16.1772L4.08648 16.4663L2.34961 15.4747C2.72889 14.8103 2.95077 14.0681 2.99539 13.2924L3.00378 13L3.00361 11C3.00025 8.87522 3.73656 6.92242 4.96794 5.38282Z"></path></symbol><symbol viewBox="0 0 24 24" id="qr-code-fill"><path d="M16 17V16H13V13H16V15H18V17H17V19H15V21H13V18H15V17H16ZM21 21H17V19H19V17H21V21ZM3 3H11V11H3V3ZM13 3H21V11H13V3ZM3 13H11V21H3V13ZM18 13H21V15H18V13ZM6 6V8H8V6H6ZM6 16V18H8V16H6ZM16 6V8H18V6H16Z"></path></symbol><symbol viewBox="0 0 24 24" id="wifi-line"><path d="M0.689453 6.99659C3.78027 4.49704 7.71526 3 11.9999 3C16.2845 3 20.2195 4.49704 23.3104 6.99659L22.0536 8.55252C19.3062 6.3307 15.8085 5 11.9999 5C8.19133 5 4.69356 6.3307 1.94617 8.55252L0.689453 6.99659ZM3.83124 10.8864C6.0635 9.08119 8.90544 8 11.9999 8C15.0944 8 17.9363 9.08119 20.1686 10.8864L18.9118 12.4424C17.023 10.9149 14.6183 10 11.9999 10C9.38151 10 6.97679 10.9149 5.08796 12.4424L3.83124 10.8864ZM6.97304 14.7763C8.34673 13.6653 10.0956 13 11.9999 13C13.9042 13 15.6531 13.6653 17.0268 14.7763L15.7701 16.3322C14.7398 15.499 13.4281 15 11.9999 15C10.5717 15 9.26002 15.499 8.22975 16.3322L6.97304 14.7763ZM10.1148 18.6661C10.63 18.2495 11.2858 18 11.9999 18C12.714 18 13.3698 18.2495 13.885 18.6661L11.9999 21L10.1148 18.6661Z"></path></symbol><symbol viewBox="0 0 24 24" id="wifi-off-line"><path d="M12.0001 18.0002C12.7144 18.0002 13.3704 18.2498 13.8856 18.6666L12.0001 21.0002L10.1145 18.6666C10.6297 18.2498 11.2857 18.0002 12.0001 18.0002ZM2.80766 1.39355L20.4853 19.0712L19.0711 20.4854L13.8913 15.3043C13.2967 15.107 12.6609 15.0002 12.0001 15.0002C10.5719 15.0002 9.26024 15.4991 8.22998 16.3323L6.97363 14.7761C8.24961 13.7443 9.84925 13.097 11.5964 13.0102L9.00025 10.4142C7.55273 10.8235 6.22651 11.5218 5.0878 12.4428L3.83099 10.8869C4.89946 10.0228 6.10763 9.3245 7.41633 8.8313L5.13168 6.54522C3.98878 7.08925 2.92058 7.76484 1.94666 8.5524L0.689453 6.99686C1.60358 6.25759 2.59156 5.60601 3.64058 5.05491L1.39345 2.80777L2.80766 1.39355ZM14.5004 10.2856L12.2165 8.00255L12 8.00012C15.0947 8.00012 17.9369 9.08154 20.1693 10.887L18.9123 12.4428C17.6438 11.4169 16.1427 10.6673 14.5004 10.2856ZM12.0001 3.00016C16.2849 3.00016 20.22 4.49731 23.3109 6.99703L22.0534 8.5524C19.3061 6.33074 15.8085 5.00016 12.0001 5.00016C11.122 5.00016 10.2604 5.07089 9.42075 5.20697L7.72455 3.511C9.09498 3.17714 10.5268 3.00016 12.0001 3.00016Z"></path></symbol><symbol viewBox="0 0 24 24" id="file-2-fill"><path d="M3 9H9C9.55228 9 10 8.55228 10 8V2H20.0017C20.5531 2 21 2.45531 21 2.9918V21.0082C21 21.556 20.5551 22 20.0066 22H3.9934C3.44476 22 3 21.5511 3 20.9925V9ZM3 7L8 2.00318V7H3Z"></path></symbol><symbol viewBox="0 0 24 24" id="clipboard-fill"><path d="M6 4V8H18V4H20.0066C20.5552 4 21 4.44495 21 4.9934V21.0066C21 21.5552 20.5551 22 20.0066 22H3.9934C3.44476 22 3 21.5551 3 21.0066V4.9934C3 4.44476 3.44495 4 3.9934 4H6ZM8 2H16V6H8V2Z"></path></symbol><symbol viewBox="0 0 24 24" id="folder-3-fill"><path d="M22 8V20C22 20.5523 21.5523 21 21 21H3C2.44772 21 2 20.5523 2 20V7H21C21.5523 7 22 7.44772 22 8ZM12.4142 5H2V4C2 3.44772 2.44772 3 3 3H10.4142L12.4142 5Z"></path></symbol><symbol viewBox="0 0 24 24" id="markdown-fill"><path d="M3 3H21C21.5523 3 22 3.44772 22 4V20C22 20.5523 21.5523 21 21 21H3C2.44772 21 2 20.5523 2 20V4C2 3.44772 2.44772 3 3 3ZM7 15.5V11.5L9 13.5L11 11.5V15.5H13V8.5H11L9 10.5L7 8.5H5V15.5H7ZM18 12.5V8.5H16V12.5H14L17 15.5L20 12.5H18Z"></path></symbol><symbol viewBox="0 0 24 24" id="bold"><path d="M8 11H12.5C13.8807 11 15 9.88071 15 8.5C15 7.11929 13.8807 6 12.5 6H8V11ZM18 15.5C18 17.9853 15.9853 20 13.5 20H6V4H12.5C14.9853 4 17 6.01472 17 8.5C17 9.70431 16.5269 10.7981 15.7564 11.6058C17.0979 12.3847 18 13.837 18 15.5ZM8 13V18H13.5C14.8807 18 16 16.8807 16 15.5C16 14.1193 14.8807 13 13.5 13H8Z"></path></symbol><symbol viewBox="0 0 24 24" id="italic"><path d="M15 20H7V18H9.92661L12.0425 6H9V4H17V6H14.0734L11.9575 18H15V20Z"></path></symbol><symbol viewBox="0 0 24 24" id="heading"><path d="M17 11V4H19V21H17V13H7V21H5V4H7V11H17Z"></path></symbol><symbol viewBox="0 0 24 24" id="text"><path d="M13 6V21H11V6H5V4H19V6H13Z"></path></symbol><symbol viewBox="0 0 24 24" id="underline"><path d="M8 3V12C8 14.2091 9.79086 16 12 16C14.2091 16 16 14.2091 16 12V3H18V12C18 15.3137 15.3137 18 12 18C8.68629 18 6 15.3137 6 12V3H8ZM4 20H20V22H4V20Z"></path></symbol><symbol viewBox="0 0 24 24" id="code-view"><path d="M16.95 8.46451L18.3642 7.05029L23.3139 12L18.3642 16.9498L16.95 15.5356L20.4855 12L16.95 8.46451ZM7.05048 8.46451L3.51495 12L7.05048 15.5356L5.63627 16.9498L0.686523 12L5.63627 7.05029L7.05048 8.46451Z"></path></symbol><symbol viewBox="0 0 24 24" id="price-tag-3-fill"><path d="M10.9042 2.1001L20.8037 3.51431L22.2179 13.4138L13.0255 22.6062C12.635 22.9967 12.0019 22.9967 11.6113 22.6062L1.71184 12.7067C1.32131 12.3162 1.32131 11.683 1.71184 11.2925L10.9042 2.1001ZM13.7327 10.5854C14.5137 11.3664 15.78 11.3664 16.5611 10.5854C17.3421 9.80433 17.3421 8.538 16.5611 7.75695C15.78 6.9759 14.5137 6.9759 13.7327 7.75695C12.9516 8.538 12.9516 9.80433 13.7327 10.5854Z"></path></symbol><symbol viewBox="0 0 24 24" id="vip-diamond-fill"><path d="M4.87759 3.00293H19.1319C19.4518 3.00293 19.7524 3.15601 19.9406 3.41476L23.7634 8.67115C23.9037 8.86403 23.8882 9.12913 23.7265 9.30438L12.3721 21.6049C12.1848 21.8078 11.8685 21.8205 11.6656 21.6332C11.6558 21.6241 11.6464 21.6147 11.6373 21.6049L0.282992 9.30438C0.121226 9.12913 0.10575 8.86403 0.246026 8.67115L4.06886 3.41476C4.25704 3.15601 4.55766 3.00293 4.87759 3.00293Z"></path></symbol><symbol viewBox="0 0 24 24" id="heart-3-fill"><path d="M16.5 3C19.5376 3 22 5.5 22 9C22 16 14.5 20 12 21.5C9.5 20 2 16 2 9C2 5.5 4.5 3 7.5 3C9.35997 3 11 4 12 5C13 4 14.64 3 16.5 3Z"></path></symbol><symbol viewBox="0 0 24 24" id="apple-fill"><path d="M11.6734 7.2221C10.7974 7.2221 9.44138 6.2261 8.01338 6.2621C6.12938 6.2861 4.40138 7.3541 3.42938 9.0461C1.47338 12.4421 2.92538 17.4581 4.83338 20.2181C5.76938 21.5621 6.87338 23.0741 8.33738 23.0261C9.74138 22.9661 10.2694 22.1141 11.9734 22.1141C13.6654 22.1141 14.1454 23.0261 15.6334 22.9901C17.1454 22.9661 18.1054 21.6221 19.0294 20.2661C20.0974 18.7061 20.5414 17.1941 20.5654 17.1101C20.5294 17.0981 17.6254 15.9821 17.5894 12.6221C17.5654 9.8141 19.8814 8.4701 19.9894 8.4101C18.6694 6.4781 16.6414 6.2621 15.9334 6.2141C14.0854 6.0701 12.5374 7.2221 11.6734 7.2221ZM14.7934 4.3901C15.5734 3.4541 16.0894 2.1461 15.9454 0.850098C14.8294 0.898098 13.4854 1.5941 12.6814 2.5301C11.9614 3.3581 11.3374 4.6901 11.5054 5.9621C12.7414 6.0581 14.0134 5.3261 14.7934 4.3901Z"></path></symbol><symbol viewBox="0 0 24 24" id="discord-fill"><path d="M19.3034 5.33716C17.9344 4.71103 16.4805 4.2547 14.9629 4C14.7719 4.32899 14.5596 4.77471 14.411 5.12492C12.7969 4.89144 11.1944 4.89144 9.60255 5.12492C9.45397 4.77471 9.2311 4.32899 9.05068 4C7.52251 4.2547 6.06861 4.71103 4.70915 5.33716C1.96053 9.39111 1.21766 13.3495 1.5891 17.2549C3.41443 18.5815 5.17612 19.388 6.90701 19.9187C7.33151 19.3456 7.71356 18.73 8.04255 18.0827C7.41641 17.8492 6.82211 17.5627 6.24904 17.2231C6.39762 17.117 6.5462 17.0003 6.68416 16.8835C10.1438 18.4648 13.8911 18.4648 17.3082 16.8835C17.4568 17.0003 17.5948 17.117 17.7434 17.2231C17.1703 17.5627 16.576 17.8492 15.9499 18.0827C16.2789 18.73 16.6609 19.3456 17.0854 19.9187C18.8152 19.388 20.5875 18.5815 22.4033 17.2549C22.8596 12.7341 21.6806 8.80747 19.3034 5.33716ZM8.5201 14.8459C7.48007 14.8459 6.63107 13.9014 6.63107 12.7447C6.63107 11.5879 7.45884 10.6434 8.5201 10.6434C9.57071 10.6434 10.4303 11.5879 10.4091 12.7447C10.4091 13.9014 9.57071 14.8459 8.5201 14.8459ZM15.4936 14.8459C14.4535 14.8459 13.6034 13.9014 13.6034 12.7447C13.6034 11.5879 14.4323 10.6434 15.4936 10.6434C16.5442 10.6434 17.4038 11.5879 17.3825 12.7447C17.3825 13.9014 16.5548 14.8459 15.4936 14.8459Z"></path></symbol><symbol viewBox="0 0 24 24" id="google-fill"><path d="M3.06364 7.50914C4.70909 4.24092 8.09084 2 12 2C14.6954 2 16.959 2.99095 18.6909 4.60455L15.8227 7.47274C14.7864 6.48185 13.4681 5.97727 12 5.97727C9.39542 5.97727 7.19084 7.73637 6.40455 10.1C6.2045 10.7 6.09086 11.3409 6.09086 12C6.09086 12.6591 6.2045 13.3 6.40455 13.9C7.19084 16.2636 9.39542 18.0227 12 18.0227C13.3454 18.0227 14.4909 17.6682 15.3864 17.0682C16.4454 16.3591 17.15 15.3 17.3818 14.05H12V10.1818H21.4181C21.5364 10.8363 21.6 11.5182 21.6 12.2273C21.6 15.2727 20.5091 17.8363 18.6181 19.5773C16.9636 21.1046 14.7 22 12 22C8.09084 22 4.70909 19.7591 3.06364 16.4909C2.38638 15.1409 2 13.6136 2 12C2 10.3864 2.38638 8.85911 3.06364 7.50914Z"></path></symbol><symbol viewBox="0 0 24 24" id="github-fill"><path d="M12.001 2C6.47598 2 2.00098 6.475 2.00098 12C2.00098 16.425 4.86348 20.1625 8.83848 21.4875C9.33848 21.575 9.52598 21.275 9.52598 21.0125C9.52598 20.775 9.51348 19.9875 9.51348 19.15C7.00098 19.6125 6.35098 18.5375 6.15098 17.975C6.03848 17.6875 5.55098 16.8 5.12598 16.5625C4.77598 16.375 4.27598 15.9125 5.11348 15.9C5.90098 15.8875 6.46348 16.625 6.65098 16.925C7.55098 18.4375 8.98848 18.0125 9.56348 17.75C9.65098 17.1 9.91348 16.6625 10.201 16.4125C7.97598 16.1625 5.65098 15.3 5.65098 11.475C5.65098 10.3875 6.03848 9.4875 6.67598 8.7875C6.57598 8.5375 6.22598 7.5125 6.77598 6.1375C6.77598 6.1375 7.61348 5.875 9.52598 7.1625C10.326 6.9375 11.176 6.825 12.026 6.825C12.876 6.825 13.726 6.9375 14.526 7.1625C16.4385 5.8625 17.276 6.1375 17.276 6.1375C17.826 7.5125 17.476 8.5375 17.376 8.7875C18.0135 9.4875 18.401 10.375 18.401 11.475C18.401 15.3125 16.0635 16.1625 13.8385 16.4125C14.201 16.725 14.5135 17.325 14.5135 18.2625C14.5135 19.6 14.501 20.675 14.501 21.0125C14.501 21.275 14.6885 21.5875 15.1885 21.4875C19.259 20.1133 21.9999 16.2963 22.001 12C22.001 6.475 17.526 2 12.001 2Z"></path></symbol><symbol viewBox="0 0 24 24" id="reddit-fill"><path d="M12.001 22C6.47813 22 2.00098 17.5228 2.00098 12C2.00098 6.47715 6.47813 2 12.001 2C17.5238 2 22.001 6.47715 22.001 12C22.001 17.5228 17.5238 22 12.001 22ZM18.671 12C18.65 11.425 18.2932 10.916 17.7598 10.7C17.2265 10.4841 16.6161 10.6016 16.201 11C15.0634 10.2267 13.7262 9.7995 12.351 9.77L13.001 6.65L15.141 7.1C15.1935 7.58851 15.5932 7.96647 16.0839 7.99172C16.5745 8.01696 17.0109 7.68201 17.1133 7.20147C17.2157 6.72094 16.9538 6.23719 16.4955 6.06019C16.0372 5.88318 15.5181 6.06536 15.271 6.49L12.821 6C12.74 5.98224 12.6554 5.99763 12.5858 6.04272C12.5163 6.08781 12.4678 6.15886 12.451 6.24L11.711 9.71C10.3189 9.73099 8.96325 10.1585 7.81098 10.94C7.38972 10.5436 6.77418 10.4333 6.2415 10.6588C5.70882 10.8842 5.35944 11.4028 5.35067 11.9812C5.3419 12.5595 5.67538 13.0885 6.20098 13.33C6.18972 13.4765 6.18972 13.6235 6.20098 13.77C6.20098 16.01 8.81098 17.83 12.031 17.83C15.251 17.83 17.861 16.01 17.861 13.77C17.8722 13.6235 17.8722 13.4765 17.861 13.33C18.3646 13.0797 18.6797 12.5623 18.671 12ZM8.67098 13C8.67098 12.4477 9.11869 12 9.67098 12C10.2233 12 10.671 12.4477 10.671 13C10.671 13.5523 10.2233 14 9.67098 14C9.40576 14 9.15141 13.8946 8.96387 13.7071C8.77633 13.5196 8.67098 13.2652 8.67098 13ZM14.481 15.75C13.7715 16.2847 12.8986 16.5568 12.011 16.52C11.1234 16.5568 10.2505 16.2847 9.54098 15.75C9.45288 15.6427 9.46057 15.486 9.55877 15.3878C9.65696 15.2896 9.81363 15.2819 9.92098 15.37C10.5222 15.811 11.2561 16.0333 12.001 16C12.7468 16.0406 13.4841 15.8254 14.091 15.39C14.1624 15.3203 14.2656 15.2941 14.3617 15.3211C14.4577 15.3482 14.5321 15.4244 14.5567 15.5211C14.5813 15.6178 14.5524 15.7203 14.481 15.79V15.75ZM14.301 14.04C13.7487 14.04 13.301 13.5923 13.301 13.04C13.301 12.4877 13.7487 12.04 14.301 12.04C14.8533 12.04 15.301 12.4877 15.301 13.04C15.312 13.3138 15.2101 13.5802 15.0192 13.7767C14.8282 13.9733 14.565 14.083 14.291 14.08L14.301 14.04Z"></path></symbol><symbol viewBox="0 0 24 24" id="windows-fill"><path d="M3.00098 5.47902L10.3778 4.4625V11.5902H3.00098V5.47902ZM3.00098 18.521L10.3778 19.5375V12.4982H3.00098V18.521ZM11.1894 19.646L21.001 21V12.4982H11.1894V19.646ZM11.1894 4.35402V11.5902H21.001V3L11.1894 4.35402Z"></path></symbol><symbol viewBox="0 0 24 24" id="centos-fill"><path d="M12 13.0607L16.47 17.531L12 22L7.53 17.53L12 13.0607ZM3.99968 16.1207L7.87868 19.9997L4 20L3.99968 16.1207ZM19.9997 16.1207L20 20L16.1207 19.9997L19.9997 16.1207ZM17.53 7.53L22 12L17.531 16.47L13.0607 12L17.53 7.53ZM6.47 7.53L10.9393 12L6.469 16.469L2 12L6.47 7.53ZM12 2L16.469 6.469L12 10.9393L7.53 6.47L12 2ZM7.87868 3.99968L3.99968 7.87868L4 4L7.87868 3.99968ZM20 4L19.9997 7.87868L16.1207 3.99968L20 4Z"></path></symbol><symbol viewBox="0 0 24 24" id="map-pin-2-fill"><path d="M18.364 17.364L12 23.7279L5.63604 17.364C2.12132 13.8492 2.12132 8.15076 5.63604 4.63604C9.15076 1.12132 14.8492 1.12132 18.364 4.63604C21.8787 8.15076 21.8787 13.8492 18.364 17.364ZM12 13C13.1046 13 14 12.1046 14 11C14 9.89543 13.1046 9 12 9C10.8954 9 10 9.89543 10 11C10 12.1046 10.8954 13 12 13Z"></path></symbol><symbol viewBox="0 0 24 24" id="compass-fill"><path d="M12 22C6.47715 22 2 17.5228 2 12C2 6.47715 6.47715 2 12 2C17.5228 2 22 6.47715 22 12C22 17.5228 17.5228 22 12 22ZM15.5 8.5L10.5 10.5L8.5 15.5L13.5 13.5L15.5 8.5Z"></path></symbol><symbol viewBox="0 0 24 24" id="volume-down-fill"><path d="M8.88889 16.0001H5C4.44772 16.0001 4 15.5524 4 15.0001V9.00007C4 8.44778 4.44772 8.00007 5 8.00007H8.88889L14.1834 3.66821C14.3971 3.49335 14.7121 3.52485 14.887 3.73857C14.9601 3.8279 15 3.93977 15 4.05519V19.9449C15 20.2211 14.7761 20.4449 14.5 20.4449C14.3846 20.4449 14.2727 20.405 14.1834 20.3319L8.88889 16.0001ZM18.8631 16.5911L17.4411 15.1691C18.3892 14.4376 19 13.2902 19 12.0001C19 10.5697 18.2493 9.31476 17.1203 8.60766L18.5589 7.16906C20.0396 8.26166 21 10.0187 21 12.0001C21 13.8422 20.1698 15.4905 18.8631 16.5911Z"></path></symbol><symbol viewBox="0 0 24 24" id="volume-mute-fill"><path d="M5.88889 16.0001H2C1.44772 16.0001 1 15.5524 1 15.0001V9.00007C1 8.44778 1.44772 8.00007 2 8.00007H5.88889L11.1834 3.66821C11.3971 3.49335 11.7121 3.52485 11.887 3.73857C11.9601 3.8279 12 3.93977 12 4.05519V19.9449C12 20.2211 11.7761 20.4449 11.5 20.4449C11.3846 20.4449 11.2727 20.405 11.1834 20.3319L5.88889 16.0001ZM20.4142 12.0001L23.9497 15.5356L22.5355 16.9498L19 13.4143L15.4645 16.9498L14.0503 15.5356L17.5858 12.0001L14.0503 8.46454L15.4645 7.05032L19 10.5859L22.5355 7.05032L23.9497 8.46454L20.4142 12.0001Z"></path></symbol><symbol viewBox="0 0 24 24" id="volume-up-fill"><path d="M2 16.0001H5.88889L11.1834 20.3319C11.2727 20.405 11.3846 20.4449 11.5 20.4449C11.7761 20.4449 12 20.2211 12 19.9449V4.05519C12 3.93977 11.9601 3.8279 11.887 3.73857C11.7121 3.52485 11.3971 3.49335 11.1834 3.66821L5.88889 8.00007H2C1.44772 8.00007 1 8.44778 1 9.00007V15.0001C1 15.5524 1.44772 16.0001 2 16.0001ZM23 12C23 15.292 21.5539 18.2463 19.2622 20.2622L17.8445 18.8444C19.7758 17.1937 21 14.7398 21 12C21 9.26016 19.7758 6.80629 17.8445 5.15557L19.2622 3.73779C21.5539 5.75368 23 8.70795 23 12ZM18 12C18 10.0883 17.106 8.38548 15.7133 7.28673L14.2842 8.71584C15.3213 9.43855 16 10.64 16 12C16 13.36 15.3213 14.5614 14.2842 15.2841L15.7133 16.7132C17.106 15.6145 18 13.9116 18 12Z"></path></symbol><symbol viewBox="0 0 24 24" id="voiceprint-fill"><path d="M5 7H7V17H5V7ZM1 10H3V14H1V10ZM9 2H11V20H9V2ZM13 4H15V22H13V4ZM17 7H19V17H17V7ZM21 10H23V14H21V10Z"></path></symbol><symbol viewBox="0 0 24 24" id="menu-fill"><path d="M3 4H21V6H3V4ZM3 11H21V13H3V11ZM3 18H21V20H3V18Z"></path></symbol><symbol viewBox="0 0 24 24" id="more-fill"><path d="M5 10C3.9 10 3 10.9 3 12C3 13.1 3.9 14 5 14C6.1 14 7 13.1 7 12C7 10.9 6.1 10 5 10ZM19 10C17.9 10 17 10.9 17 12C17 13.1 17.9 14 19 14C20.1 14 21 13.1 21 12C21 10.9 20.1 10 19 10ZM12 10C10.9 10 10 10.9 10 12C10 13.1 10.9 14 12 14C13.1 14 14 13.1 14 12C14 10.9 13.1 10 12 10Z"></path></symbol><symbol viewBox="0 0 24 24" id="star-fill"><path d="M12.0006 18.26L4.94715 22.2082L6.52248 14.2799L0.587891 8.7918L8.61493 7.84006L12.0006 0.5L15.3862 7.84006L23.4132 8.7918L17.4787 14.2799L19.054 22.2082L12.0006 18.26Z"></path></symbol><symbol viewBox="0 0 24 24" id="settings-fill"><path d="M12 1L21.5 6.5V17.5L12 23L2.5 17.5V6.5L12 1ZM12 15C13.6569 15 15 13.6569 15 12C15 10.3431 13.6569 9 12 9C10.3431 9 9 10.3431 9 12C9 13.6569 10.3431 15 12 15Z"></path></symbol><symbol viewBox="0 0 24 24" id="information-fill"><path d="M12 22C6.47715 22 2 17.5228 2 12C2 6.47715 6.47715 2 12 2C17.5228 2 22 6.47715 22 12C22 17.5228 17.5228 22 12 22ZM11 11V17H13V11H11ZM11 7V9H13V7H11Z"></path></symbol><symbol viewBox="0 0 24 24" id="error-warning-fill"><path d="M12 22C6.47715 22 2 17.5228 2 12C2 6.47715 6.47715 2 12 2C17.5228 2 22 6.47715 22 12C22 17.5228 17.5228 22 12 22ZM11 15V17H13V15H11ZM11 7V13H13V7H11Z"></path></symbol><symbol viewBox="0 0 24 24" id="question-fill"><path d="M12 22C6.47715 22 2 17.5228 2 12C2 6.47715 6.47715 2 12 2C17.5228 2 22 6.47715 22 12C22 17.5228 17.5228 22 12 22ZM11 15V17H13V15H11ZM13 13.3551C14.4457 12.9248 15.5 11.5855 15.5 10C15.5 8.067 13.933 6.5 12 6.5C10.302 6.5 8.88637 7.70919 8.56731 9.31346L10.5288 9.70577C10.6656 9.01823 11.2723 8.5 12 8.5C12.8284 8.5 13.5 9.17157 13.5 10C13.5 10.8284 12.8284 11.5 12 11.5C11.4477 11.5 11 11.9477 11 12.5V14H13V13.3551Z"></path></symbol><symbol viewBox="0 0 24 24" id="checkbox-circle-fill"><path d="M12 22C6.47715 22 2 17.5228 2 12C2 6.47715 6.47715 2 12 2C17.5228 2 22 6.47715 22 12C22 17.5228 17.5228 22 12 22ZM11.0026 16L18.0737 8.92893L16.6595 7.51472L11.0026 13.1716L8.17421 10.3431L6.75999 11.7574L11.0026 16Z"></path></symbol><symbol viewBox="0 0 24 24" id="close-circle-fill"><path d="M12 22C6.47715 22 2 17.5228 2 12C2 6.47715 6.47715 2 12 2C17.5228 2 22 6.47715 22 12C22 17.5228 17.5228 22 12 22ZM12 10.5858L9.17157 7.75736L7.75736 9.17157L10.5858 12L7.75736 14.8284L9.17157 16.2426L12 13.4142L14.8284 16.2426L16.2426 14.8284L13.4142 12L16.2426 9.17157L14.8284 7.75736L12 10.5858Z"></path></symbol><symbol viewBox="0 0 24 24" id="radio-button-fill"><path d="M12 22C6.47715 22 2 17.5228 2 12C2 6.47715 6.47715 2 12 2C17.5228 2 22 6.47715 22 12C22 17.5228 17.5228 22 12 22ZM12 16C14.2091 16 16 14.2091 16 12C16 9.79086 14.2091 8 12 8C9.79086 8 8 9.79086 8 12C8 14.2091 9.79086 16 12 16Z"></path></symbol><symbol viewBox="0 0 24 24" id="check-fill"><path d="M10.0007 15.1709L19.1931 5.97852L20.6073 7.39273L10.0007 17.9993L3.63672 11.6354L5.05093 10.2212L10.0007 15.1709Z"></path></symbol><symbol viewBox="0 0 24 24" id="check-double-fill"><path d="M11.602 13.7599L13.014 15.1719L21.4795 6.7063L22.8938 8.12051L13.014 18.0003L6.65 11.6363L8.06421 10.2221L10.189 12.3469L11.6025 13.7594L11.602 13.7599ZM11.6037 10.9322L16.5563 5.97949L17.9666 7.38977L13.014 12.3424L11.6037 10.9322ZM8.77698 16.5873L7.36396 18.0003L1 11.6363L2.41421 10.2221L3.82723 11.6352L3.82604 11.6363L8.77698 16.5873Z"></path></symbol><symbol viewBox="0 0 24 24" id="shield-fill"><path d="M3.78307 2.82598L12 1L20.2169 2.82598C20.6745 2.92766 21 3.33347 21 3.80217V13.7889C21 15.795 19.9974 17.6684 18.3282 18.7812L12 23L5.6718 18.7812C4.00261 17.6684 3 15.795 3 13.7889V3.80217C3 3.33347 3.32553 2.92766 3.78307 2.82598Z"></path></symbol><symbol viewBox="0 0 24 24" id="delete-bin-7-fill"><path d="M7 6V3C7 2.44772 7.44772 2 8 2H16C16.5523 2 17 2.44772 17 3V6H22V8H20V21C20 21.5523 19.5523 22 19 22H5C4.44772 22 4 21.5523 4 21V8H2V6H7ZM9 4V6H15V4H9Z"></path></symbol><symbol viewBox="0 0 24 24" id="lock-2-fill"><path d="M18 8H20C20.5523 8 21 8.44772 21 9V21C21 21.5523 20.5523 22 20 22H4C3.44772 22 3 21.5523 3 21V9C3 8.44772 3.44772 8 4 8H6V7C6 3.68629 8.68629 1 12 1C15.3137 1 18 3.68629 18 7V8ZM11 15.7324V18H13V15.7324C13.5978 15.3866 14 14.7403 14 14C14 12.8954 13.1046 12 12 12C10.8954 12 10 12.8954 10 14C10 14.7403 10.4022 15.3866 11 15.7324ZM16 8V7C16 4.79086 14.2091 3 12 3C9.79086 3 8 4.79086 8 7V8H16Z"></path></symbol><symbol viewBox="0 0 24 24" id="eye-fill"><path d="M1.18164 12C2.12215 6.87976 6.60812 3 12.0003 3C17.3924 3 21.8784 6.87976 22.8189 12C21.8784 17.1202 17.3924 21 12.0003 21C6.60812 21 2.12215 17.1202 1.18164 12ZM12.0003 17C14.7617 17 17.0003 14.7614 17.0003 12C17.0003 9.23858 14.7617 7 12.0003 7C9.23884 7 7.00026 9.23858 7.00026 12C7.00026 14.7614 9.23884 17 12.0003 17ZM12.0003 15C10.3434 15 9.00026 13.6569 9.00026 12C9.00026 10.3431 10.3434 9 12.0003 9C13.6571 9 15.0003 10.3431 15.0003 12C15.0003 13.6569 13.6571 15 12.0003 15Z"></path></symbol><symbol viewBox="0 0 24 24" id="eye-off-fill"><path d="M4.52047 5.93457L1.39366 2.80777L2.80788 1.39355L22.6069 21.1925L21.1927 22.6068L17.8827 19.2968C16.1814 20.3755 14.1638 21.0002 12.0003 21.0002C6.60812 21.0002 2.12215 17.1204 1.18164 12.0002C1.61832 9.62282 2.81932 7.5129 4.52047 5.93457ZM14.7577 16.1718L13.2937 14.7078C12.902 14.8952 12.4634 15.0002 12.0003 15.0002C10.3434 15.0002 9.00026 13.657 9.00026 12.0002C9.00026 11.537 9.10522 11.0984 9.29263 10.7067L7.82866 9.24277C7.30514 10.0332 7.00026 10.9811 7.00026 12.0002C7.00026 14.7616 9.23884 17.0002 12.0003 17.0002C13.0193 17.0002 13.9672 16.6953 14.7577 16.1718ZM7.97446 3.76015C9.22127 3.26959 10.5793 3.00016 12.0003 3.00016C17.3924 3.00016 21.8784 6.87992 22.8189 12.0002C22.5067 13.6998 21.8038 15.2628 20.8068 16.5925L16.947 12.7327C16.9821 12.4936 17.0003 12.249 17.0003 12.0002C17.0003 9.23873 14.7617 7.00016 12.0003 7.00016C11.7514 7.00016 11.5068 7.01833 11.2677 7.05343L7.97446 3.76015Z"></path></symbol><symbol viewBox="0 0 24 24" id="search-2-fill"><path d="M11 2C15.968 2 20 6.032 20 11C20 15.968 15.968 20 11 20C6.032 20 2 15.968 2 11C2 6.032 6.032 2 11 2ZM19.4853 18.0711L22.3137 20.8995L20.8995 22.3137L18.0711 19.4853L19.4853 18.0711Z"></path></symbol><symbol viewBox="0 0 24 24" id="user-fill"><path d="M4 22C4 17.5817 7.58172 14 12 14C16.4183 14 20 17.5817 20 22H4ZM12 13C8.685 13 6 10.315 6 7C6 3.685 8.685 1 12 1C15.315 1 18 3.685 18 7C18 10.315 15.315 13 12 13Z"></path></symbol><symbol viewBox="0 0 24 24" id="user-add-fill"><path d="M14 14.252V22H4C4 17.5817 7.58172 14 12 14C12.6906 14 13.3608 14.0875 14 14.252ZM12 13C8.685 13 6 10.315 6 7C6 3.685 8.685 1 12 1C15.315 1 18 3.685 18 7C18 10.315 15.315 13 12 13ZM18 17V14H20V17H23V19H20V22H18V19H15V17H18Z"></path></symbol><symbol viewBox="0 0 24 24" id="user-unfollow-fill"><path d="M14 14.252V22H4C4 17.5817 7.58172 14 12 14C12.6906 14 13.3608 14.0875 14 14.252ZM12 13C8.685 13 6 10.315 6 7C6 3.685 8.685 1 12 1C15.315 1 18 3.685 18 7C18 10.315 15.315 13 12 13ZM19 16.5858L21.1213 14.4645L22.5355 15.8787L20.4142 18L22.5355 20.1213L21.1213 21.5355L19 19.4142L16.8787 21.5355L15.4645 20.1213L17.5858 18L15.4645 15.8787L16.8787 14.4645L19 16.5858Z"></path></symbol><symbol viewBox="0 0 24 24" id="user-heart-fill"><path d="M17.841 15.659L18.017 15.836L18.1945 15.659C19.0732 14.7803 20.4978 14.7803 21.3765 15.659C22.2552 16.5377 22.2552 17.9623 21.3765 18.841L18.0178 22.1997L14.659 18.841C13.7803 17.9623 13.7803 16.5377 14.659 15.659C15.5377 14.7803 16.9623 14.7803 17.841 15.659ZM12 14V22H4C4 17.6651 7.44784 14.1355 11.7508 14.0038L12 14ZM12 1C15.315 1 18 3.685 18 7C18 10.315 15.315 13 12 13C8.685 13 6 10.315 6 7C6 3.685 8.685 1 12 1Z"></path></symbol><symbol viewBox="0 0 24 24" id="group-fill"><path d="M2 22C2 17.5817 5.58172 14 10 14C14.4183 14 18 17.5817 18 22H2ZM10 13C6.685 13 4 10.315 4 7C4 3.685 6.685 1 10 1C13.315 1 16 3.685 16 7C16 10.315 13.315 13 10 13ZM17.3628 15.2332C20.4482 16.0217 22.7679 18.7235 22.9836 22H20C20 19.3902 19.0002 17.0139 17.3628 15.2332ZM15.3401 12.9569C16.9728 11.4922 18 9.36607 18 7C18 5.58266 17.6314 4.25141 16.9849 3.09687C19.2753 3.55397 21 5.57465 21 8C21 10.7625 18.7625 13 16 13C15.7763 13 15.556 12.9853 15.3401 12.9569Z"></path></symbol><symbol viewBox="0 0 24 24" id="emotion-fill"><path d="M12 22C6.47715 22 2 17.5228 2 12C2 6.47715 6.47715 2 12 2C17.5228 2 22 6.47715 22 12C22 17.5228 17.5228 22 12 22ZM8 13C8 15.2091 9.79086 17 12 17C14.2091 17 16 15.2091 16 13H8ZM8 11C8.82843 11 9.5 10.3284 9.5 9.5C9.5 8.67157 8.82843 8 8 8C7.17157 8 6.5 8.67157 6.5 9.5C6.5 10.3284 7.17157 11 8 11ZM16 11C16.8284 11 17.5 10.3284 17.5 9.5C17.5 8.67157 16.8284 8 16 8C15.1716 8 14.5 8.67157 14.5 9.5C14.5 10.3284 15.1716 11 16 11Z"></path></symbol><symbol viewBox="0 0 24 24" id="sun-fill"><path d="M12 18C8.68629 18 6 15.3137 6 12C6 8.68629 8.68629 6 12 6C15.3137 6 18 8.68629 18 12C18 15.3137 15.3137 18 12 18ZM11 1H13V4H11V1ZM11 20H13V23H11V20ZM3.51472 4.92893L4.92893 3.51472L7.05025 5.63604L5.63604 7.05025L3.51472 4.92893ZM16.9497 18.364L18.364 16.9497L20.4853 19.0711L19.0711 20.4853L16.9497 18.364ZM19.0711 3.51472L20.4853 4.92893L18.364 7.05025L16.9497 5.63604L19.0711 3.51472ZM5.63604 16.9497L7.05025 18.364L4.92893 20.4853L3.51472 19.0711L5.63604 16.9497ZM23 11V13H20V11H23ZM4 11V13H1V11H4Z"></path></symbol><symbol viewBox="0 0 24 24" id="moon-fill"><path d="M11.3807 2.01904C9.91573 3.38786 9 5.33708 9 7.50018C9 11.6423 12.3579 15.0002 16.5 15.0002C18.6631 15.0002 20.6123 14.0844 21.9811 12.6195C21.6613 17.8539 17.3149 22.0002 12 22.0002C6.47715 22.0002 2 17.523 2 12.0002C2 6.68532 6.14629 2.33888 11.3807 2.01904Z"></path></symbol><symbol viewBox="0 0 24 24" id="flashlight-fill"><path d="M13 10H20L11 23V14H4L13 1V10Z"></path></symbol><symbol viewBox="0 0 24 24" id="fire-fill"><path d="M12 23C7.85786 23 4.5 19.6421 4.5 15.5C4.5 13.3462 5.40786 11.4045 6.86179 10.0366C8.20403 8.77375 11.5 6.49951 11 1.5C17 5.5 20 9.5 14 15.5C15 15.5 16.5 15.5 19 13.0296C19.2697 13.8032 19.5 14.6345 19.5 15.5C19.5 19.6421 16.1421 23 12 23Z"></path></symbol><symbol viewBox="0 0 24 24" id="key-fill"><path d="M17 14H12.6586C11.8349 16.3304 9.61244 18 7 18C3.68629 18 1 15.3137 1 12C1 8.68629 3.68629 6 7 6C9.61244 6 11.8349 7.66962 12.6586 10H23V14H21V18H17V14ZM7 14C8.10457 14 9 13.1046 9 12C9 10.8954 8.10457 10 7 10C5.89543 10 5 10.8954 5 12C5 13.1046 5.89543 14 7 14Z"></path></symbol><symbol viewBox="0 0 24 24" id="infinity-fill"><path d="M3 12C3 10.067 4.567 8.5 6.5 8.5C7.7035 8.5 8.51959 8.9338 9.19914 9.61336C9.9255 10.3397 10.4851 11.3322 11.1258 12.4856L11.1595 12.5462C11.7605 13.6283 12.4431 14.8573 13.3866 15.8009C14.3946 16.8088 15.7035 17.5 17.5 17.5C20.5376 17.5 23 15.0376 23 12C23 8.96243 20.5376 6.5 17.5 6.5C15.8394 6.5 14.3508 7.2359 13.3423 8.39937C13.7887 9.05406 14.1574 9.70577 14.464 10.2574C15.0681 9.20718 16.2014 8.5 17.5 8.5C19.433 8.5 21 10.067 21 12C21 13.933 19.433 15.5 17.5 15.5C16.2965 15.5 15.4804 15.0662 14.8009 14.3866C14.0745 13.6603 13.5149 12.6678 12.8742 11.5144L12.8405 11.4538C12.2395 10.3717 11.5569 9.14265 10.6134 8.19914C9.60541 7.1912 8.2965 6.5 6.5 6.5C3.46243 6.5 1 8.96243 1 12C1 15.0376 3.46243 17.5 6.5 17.5C8.16056 17.5 9.64923 16.7641 10.6577 15.6006C10.2113 14.9459 9.84262 14.2942 9.53605 13.7426C8.93194 14.7928 7.79856 15.5 6.5 15.5C4.567 15.5 3 13.933 3 12Z"></path></symbol><symbol viewBox="0 0 24 24" id="notification-3-fill"><path d="M20 17H22V19H2V17H4V10C4 5.58172 7.58172 2 12 2C16.4183 2 20 5.58172 20 10V17ZM9 21H15V23H9V21Z"></path></symbol><symbol viewBox="0 0 24 24" id="add-fill"><path d="M11 11V5H13V11H19V13H13V19H11V13H5V11H11Z"></path></symbol><symbol viewBox="0 0 24 24" id="login-box-fill"><path d="M10 11H4V3C4 2.44772 4.44772 2 5 2H19C19.5523 2 20 2.44772 20 3V21C20 21.5523 19.5523 22 19 22H5C4.44772 22 4 21.5523 4 21V13H10V16L15 12L10 8V11Z"></path></symbol><symbol viewBox="0 0 24 24" id="logout-box-fill"><path d="M5 2H19C19.5523 2 20 2.44772 20 3V21C20 21.5523 19.5523 22 19 22H5C4.44772 22 4 21.5523 4 21V3C4 2.44772 4.44772 2 5 2ZM9 11V8L4 12L9 16V13H15V11H9Z"></path></symbol><symbol viewBox="0 0 24 24" id="home-7-line"><path d="M19 21.0001H5C4.44772 21.0001 4 20.5524 4 20.0001V11.0001L1 11.0001L11.3273 1.61162C11.7087 1.26488 12.2913 1.26488 12.6727 1.61162L23 11.0001L20 11.0001V20.0001C20 20.5524 19.5523 21.0001 19 21.0001ZM6 19.0001H18V9.15757L12 3.70302L6 9.15757V19.0001ZM12 15.0001C10.6193 15.0001 9.5 13.8808 9.5 12.5001C9.5 11.1194 10.6193 10.0001 12 10.0001C13.3807 10.0001 14.5 11.1194 14.5 12.5001C14.5 13.8808 13.3807 15.0001 12 15.0001Z"></path></symbol><symbol viewBox="0 0 24 24" id="mail-line"><path d="M3 3H21C21.5523 3 22 3.44772 22 4V20C22 20.5523 21.5523 21 21 21H3C2.44772 21 2 20.5523 2 20V4C2 3.44772 2.44772 3 3 3ZM20 7.23792L12.0718 14.338L4 7.21594V19H20V7.23792ZM4.51146 5L12.0619 11.662L19.501 5H4.51146Z"></path></symbol><symbol viewBox="0 0 24 24" id="mail-unread-line"><path d="M16.1 3C16.0344 3.32311 16 3.65753 16 4C16 4.34247 16.0344 4.67689 16.1 5H4.51146L12.0619 11.662L17.1098 7.14141C17.5363 7.66888 18.0679 8.10787 18.6728 8.42652L12.0718 14.338L4 7.21594V19H20V8.89998C20.3231 8.96557 20.6575 9 21 9C21.3425 9 21.6769 8.96557 22 8.89998V20C22 20.5523 21.5523 21 21 21H3C2.44772 21 2 20.5523 2 20V4C2 3.44772 2.44772 3 3 3H16.1ZM21 1C22.6569 1 24 2.34315 24 4C24 5.65685 22.6569 7 21 7C19.3431 7 18 5.65685 18 4C18 2.34315 19.3431 1 21 1Z"></path></symbol><symbol viewBox="0 0 24 24" id="mail-lock-line"><path d="M20 7.23792L12.0718 14.338L4 7.21594V19H13V21H3C2.44772 21 2 20.5523 2 20V4C2 3.44772 2.44772 3 3 3H21C21.5523 3 22 3.44772 22 4V11H20V7.23792ZM19.501 5H4.51146L12.0619 11.662L19.501 5ZM22 17H23V22H15V17H16V16C16 14.3431 17.3431 13 19 13C20.6569 13 22 14.3431 22 16V17ZM20 17V16C20 15.4477 19.5523 15 19 15C18.4477 15 18 15.4477 18 16V17H20Z"></path></symbol><symbol viewBox="0 0 24 24" id="cloud-off-line"><path d="M3.51472 2.10051L22.6066 21.1924L21.1924 22.6066L19.1782 20.5924C18.503 20.8556 17.7684 21 17 21H7C3.68629 21 1 18.3137 1 15C1 12.3846 2.67346 10.16 5.00804 9.33857C5.0027 9.22639 5 9.11351 5 9C5 8.22228 5.12683 7.47418 5.36094 6.77527L2.10051 3.51472L3.51472 2.10051ZM7 9C7 9.08147 7.00193 9.16263 7.00578 9.24344L7.07662 10.7309L5.67183 11.2252C4.0844 11.7837 3 13.2889 3 15C3 17.2091 4.79086 19 7 19H17C17.1858 19 17.3687 18.9873 17.5478 18.9628L7.03043 8.44519C7.01032 8.62736 7 8.81247 7 9ZM12 2C15.866 2 19 5.13401 19 9C19 9.11351 18.9973 9.22639 18.992 9.33857C21.3265 10.16 23 12.3846 23 15C23 16.0883 22.7103 17.1089 22.2037 17.9889L20.7111 16.4955C20.8974 16.0335 21 15.5287 21 15C21 12.79 19.21 11 17 11C16.4711 11 15.9661 11.1027 15.5039 11.2892L14.0111 9.7964C14.8912 9.28978 15.9118 9 17 9C17 6.23858 14.7614 4 12 4C10.9295 4 9.93766 4.33639 9.12428 4.90922L7.69418 3.48056C8.88169 2.55284 10.3763 2 12 2Z"></path></symbol><symbol viewBox="0 0 24 24" id="cloud-line"><path d="M12 2C15.866 2 19 5.13401 19 9C19 9.11351 18.9973 9.22639 18.992 9.33857C21.3265 10.16 23 12.3846 23 15C23 18.3137 20.3137 21 17 21H7C3.68629 21 1 18.3137 1 15C1 12.3846 2.67346 10.16 5.00804 9.33857C5.0027 9.22639 5 9.11351 5 9C5 5.13401 8.13401 2 12 2ZM12 4C9.23858 4 7 6.23858 7 9C7 9.08147 7.00193 9.16263 7.00578 9.24344L7.07662 10.7309L5.67183 11.2252C4.0844 11.7837 3 13.2889 3 15C3 17.2091 4.79086 19 7 19H17C19.2091 19 21 17.2091 21 15C21 12.79 19.21 11 17 11C15.233 11 13.7337 12.1457 13.2042 13.7347L11.3064 13.1021C12.1005 10.7185 14.35 9 17 9C17 6.23858 14.7614 4 12 4Z"></path></symbol><symbol viewBox="0 0 24 24" id="inbox-line"><path d="M21 3C21.5523 3 22 3.44772 22 4V20C22 20.5523 21.5523 21 21 21H3C2.44772 21 2 20.5523 2 20V4C2 3.44772 2.44772 3 3 3H21ZM7.41604 14H4V19H20V14H16.584C15.8124 15.7659 14.0503 17 12 17C9.94968 17 8.1876 15.7659 7.41604 14ZM20 5H4V12H9C9 13.6569 10.3431 15 12 15C13.6569 15 15 13.6569 15 12H20V5Z"></path></symbol><symbol viewBox="0 0 24 24" id="bar-chart-2-line"><path d="M2 13H8V21H2V13ZM16 8H22V21H16V8ZM9 3H15V21H9V3ZM4 15V19H6V15H4ZM11 5V19H13V5H11ZM18 10V19H20V10H18Z"></path></symbol><symbol viewBox="0 0 24 24" id="pie-chart-2-line"><path d="M12 0.5C18.3513 0.5 23.5 5.64873 23.5 12C23.5 12.3369 23.4855 12.6704 23.4571 13H21.9506C21.4489 18.0533 17.1853 22 12 22C6.47715 22 2 17.5228 2 12C2 6.81465 5.94668 2.5511 11 2.04938V0.542876C11.3296 0.514488 11.6631 0.5 12 0.5ZM11 4.06189C7.05369 4.55399 4 7.92038 4 12C4 16.4183 7.58172 20 12 20C16.0796 20 19.446 16.9463 19.9381 13H11V4.06189ZM13 2.552V11H21.448C20.9827 6.55197 17.448 3.01732 13 2.552Z"></path></symbol><symbol viewBox="0 0 24 24" id="bookmark-line"><path d="M5 2H19C19.5523 2 20 2.44772 20 3V22.1433C20 22.4194 19.7761 22.6434 19.5 22.6434C19.4061 22.6434 19.314 22.6168 19.2344 22.5669L12 18.0313L4.76559 22.5669C4.53163 22.7136 4.22306 22.6429 4.07637 22.4089C4.02647 22.3293 4 22.2373 4 22.1433V3C4 2.44772 4.44772 2 5 2ZM18 4H6V19.4324L12 15.6707L18 19.4324V4Z"></path></symbol><symbol viewBox="0 0 24 24" id="flag-line"><path d="M12.382 3C12.7607 3 13.107 3.214 13.2764 3.55279L14 5H20C20.5523 5 21 5.44772 21 6V17C21 17.5523 20.5523 18 20 18H13.618C13.2393 18 12.893 17.786 12.7236 17.4472L12 16H5V22H3V3H12.382ZM11.7639 5H5V14H13.2361L14.2361 16H19V7H12.7639L11.7639 5Z"></path></symbol><symbol viewBox="0 0 24 24" id="printer-line"><path d="M17 2C17.5523 2 18 2.44772 18 3V7H21C21.5523 7 22 7.44772 22 8V18C22 18.5523 21.5523 19 21 19H18V21C18 21.5523 17.5523 22 17 22H7C6.44772 22 6 21.5523 6 21V19H3C2.44772 19 2 18.5523 2 18V8C2 7.44772 2.44772 7 3 7H6V3C6 2.44772 6.44772 2 7 2H17ZM16 17H8V20H16V17ZM20 9H4V17H6V16C6 15.4477 6.44772 15 7 15H17C17.5523 15 18 15.4477 18 16V17H20V9ZM8 10V12H5V10H8ZM16 4H8V7H16V4Z"></path></symbol><symbol viewBox="0 0 24 24" id="stack-line"><path d="M20.0833 15.1998L21.2854 15.9211C21.5221 16.0632 21.5989 16.3703 21.4569 16.6071C21.4146 16.6774 21.3557 16.7363 21.2854 16.7786L12.5144 22.0411C12.1977 22.2311 11.8021 22.2311 11.4854 22.0411L2.71451 16.7786C2.47772 16.6365 2.40093 16.3294 2.54301 16.0926C2.58523 16.0222 2.64413 15.9633 2.71451 15.9211L3.9166 15.1998L11.9999 20.0498L20.0833 15.1998ZM20.0833 10.4998L21.2854 11.2211C21.5221 11.3632 21.5989 11.6703 21.4569 11.9071C21.4146 11.9774 21.3557 12.0363 21.2854 12.0786L11.9999 17.6498L2.71451 12.0786C2.47772 11.9365 2.40093 11.6294 2.54301 11.3926C2.58523 11.3222 2.64413 11.2633 2.71451 11.2211L3.9166 10.4998L11.9999 15.3498L20.0833 10.4998ZM12.5144 1.30852L21.2854 6.57108C21.5221 6.71315 21.5989 7.02028 21.4569 7.25707C21.4146 7.32745 21.3557 7.38635 21.2854 7.42857L11.9999 12.9998L2.71451 7.42857C2.47772 7.2865 2.40093 6.97937 2.54301 6.74258C2.58523 6.6722 2.64413 6.6133 2.71451 6.57108L11.4854 1.30852C11.8021 1.11851 12.1977 1.11851 12.5144 1.30852ZM11.9999 3.33221L5.88723 6.99983L11.9999 10.6674L18.1126 6.99983L11.9999 3.33221Z"></path></symbol><symbol viewBox="0 0 24 24" id="advertisement-line"><path d="M12.598 16 9.39893 8H7.39893L5.39893 13 5.39795 13.002 4.19897 16H6.35303L6.75293 15H10.043L10.443 16H12.598ZM7.552 13 8.39893 10.8851 9.24402 13H7.552ZM17 8H19V16H16C14.3431 16 13 14.6569 13 13 13 11.3431 14.3431 10 16 10H17V8ZM16 12C15.4478 12 15 12.4478 15 13 15 13.5522 15.4478 14 16 14H17V12H16ZM21 3H3C2.44775 3 2 3.44775 2 4V20C2 20.5522 2.44775 21 3 21H21C21.5522 21 22 20.5522 22 20V4C22 3.44775 21.5522 3 21 3ZM4 19V5H20V19H4Z"></path></symbol><symbol viewBox="0 0 24 24" id="chat-3-line"><path d="M7.29117 20.8242L2 22L3.17581 16.7088C2.42544 15.3056 2 13.7025 2 12C2 6.47715 6.47715 2 12 2C17.5228 2 22 6.47715 22 12C22 17.5228 17.5228 22 12 22C10.2975 22 8.6944 21.5746 7.29117 20.8242ZM7.58075 18.711L8.23428 19.0605C9.38248 19.6745 10.6655 20 12 20C16.4183 20 20 16.4183 20 12C20 7.58172 16.4183 4 12 4C7.58172 4 4 7.58172 4 12C4 13.3345 4.32549 14.6175 4.93949 15.7657L5.28896 16.4192L4.63416 19.3658L7.58075 18.711Z"></path></symbol><symbol viewBox="0 0 24 24" id="pencil-line"><path d="M15.7279 9.57629L14.3137 8.16207L5 17.4758V18.89H6.41421L15.7279 9.57629ZM17.1421 8.16207L18.5563 6.74786L17.1421 5.33365L15.7279 6.74786L17.1421 8.16207ZM7.24264 20.89H3V16.6474L16.435 3.21233C16.8256 2.8218 17.4587 2.8218 17.8492 3.21233L20.6777 6.04075C21.0682 6.43128 21.0682 7.06444 20.6777 7.45497L7.24264 20.89Z"></path></symbol><symbol viewBox="0 0 24 24" id="brush-line"><path d="M15.4565 9.67491L15.3144 9.53285C14.6661 8.90783 13.8549 8.43357 12.9235 8.18399C10.0168 7.40515 7.22541 9.05261 6.43185 12.0142C6.38901 12.1741 6.36574 12.3536 6.3285 12.805C6.17423 14.675 5.73449 16.0696 4.5286 17.4841C6.78847 18.3726 9.46572 18.9984 11.5016 18.9984C13.9702 18.9984 16.1644 17.3393 16.8126 14.9201C17.3306 12.9868 16.7513 11.018 15.4565 9.67491ZM13.2886 6.21289L18.2278 2.3713C18.6259 2.06168 19.1922 2.09694 19.5488 2.45355L22.543 5.44774C22.8997 5.80435 22.9349 6.3707 22.6253 6.76879L18.7847 11.7067C19.0778 12.895 19.0836 14.1719 18.7444 15.4377C17.8463 18.7896 14.8142 20.9984 11.5016 20.9984C8 20.9984 3.5 19.4966 1 17.9966C4.97978 14.9966 4.04722 13.1864 4.5 11.4966C5.55843 7.54646 9.34224 5.23923 13.2886 6.21289ZM16.7015 8.09149C16.7673 8.15494 16.8319 8.21952 16.8952 8.2852L18.0297 9.41972L20.5046 6.23774L18.7589 4.49198L15.5769 6.96685L16.7015 8.09149Z"></path></symbol><symbol viewBox="0 0 24 24" id="crosshair-2-fill"><path d="M11 5.07089C7.93431 5.5094 5.5094 7.93431 5.07089 11H7V13H5.07089C5.5094 16.0657 7.93431 18.4906 11 18.9291V17H13V18.9291C16.0657 18.4906 18.4906 16.0657 18.9291 13H17V11H18.9291C18.4906 7.93431 16.0657 5.5094 13 5.07089V7H11V5.07089ZM3.05493 11C3.51608 6.82838 6.82838 3.51608 11 3.05493V1H13V3.05493C17.1716 3.51608 20.4839 6.82838 20.9451 11H23V13H20.9451C20.4839 17.1716 17.1716 20.4839 13 20.9451V23H11V20.9451C6.82838 20.4839 3.51608 17.1716 3.05493 13H1V11H3.05493ZM15 12C15 13.6569 13.6569 15 12 15C10.3431 15 9 13.6569 9 12C9 10.3431 10.3431 9 12 9C13.6569 9 15 10.3431 15 12Z"></path></symbol><symbol viewBox="0 0 24 24" id="braces-line"><path d="M4 18V14.3C4 13.4716 3.32843 12.8 2.5 12.8H2V11.2H2.5C3.32843 11.2 4 10.5284 4 9.7V6C4 4.34315 5.34315 3 7 3H8V5H7C6.44772 5 6 5.44772 6 6V10.1C6 10.9858 5.42408 11.7372 4.62623 12C5.42408 12.2628 6 13.0142 6 13.9V18C6 18.5523 6.44772 19 7 19H8V21H7C5.34315 21 4 19.6569 4 18ZM20 14.3V18C20 19.6569 18.6569 21 17 21H16V19H17C17.5523 19 18 18.5523 18 18V13.9C18 13.0142 18.5759 12.2628 19.3738 12C18.5759 11.7372 18 10.9858 18 10.1V6C18 5.44772 17.5523 5 17 5H16V3H17C18.6569 3 20 4.34315 20 6V9.7C20 10.5284 20.6716 11.2 21.5 11.2H22V12.8H21.5C20.6716 12.8 20 13.4716 20 14.3Z"></path></symbol><symbol viewBox="0 0 24 24" id="server-line"><path d="M5 11H19V5H5V11ZM21 4V20C21 20.5523 20.5523 21 20 21H4C3.44772 21 3 20.5523 3 20V4C3 3.44772 3.44772 3 4 3H20C20.5523 3 21 3.44772 21 4ZM19 13H5V19H19V13ZM7 15H10V17H7V15ZM7 7H10V9H7V7Z"></path></symbol><symbol viewBox="0 0 24 24" id="database-2-line"><path d="M5 12.5C5 12.8134 5.46101 13.3584 6.53047 13.8931C7.91405 14.5849 9.87677 15 12 15C14.1232 15 16.0859 14.5849 17.4695 13.8931C18.539 13.3584 19 12.8134 19 12.5V10.3287C17.35 11.3482 14.8273 12 12 12C9.17273 12 6.64996 11.3482 5 10.3287V12.5ZM19 15.3287C17.35 16.3482 14.8273 17 12 17C9.17273 17 6.64996 16.3482 5 15.3287V17.5C5 17.8134 5.46101 18.3584 6.53047 18.8931C7.91405 19.5849 9.87677 20 12 20C14.1232 20 16.0859 19.5849 17.4695 18.8931C18.539 18.3584 19 17.8134 19 17.5V15.3287ZM3 17.5V7.5C3 5.01472 7.02944 3 12 3C16.9706 3 21 5.01472 21 7.5V17.5C21 19.9853 16.9706 22 12 22C7.02944 22 3 19.9853 3 17.5ZM12 10C14.1232 10 16.0859 9.58492 17.4695 8.89313C18.539 8.3584 19 7.81342 19 7.5C19 7.18658 18.539 6.6416 17.4695 6.10687C16.0859 5.41508 14.1232 5 12 5C9.87677 5 7.91405 5.41508 6.53047 6.10687C5.46101 6.6416 5 7.18658 5 7.5C5 7.81342 5.46101 8.3584 6.53047 8.89313C7.91405 9.58492 9.87677 10 12 10Z"></path></symbol><symbol viewBox="0 0 24 24" id="instance-line"><path d="M4.5 7.65311V16.3469L12 20.689L19.5 16.3469V7.65311L12 3.311L4.5 7.65311ZM12 1L21.5 6.5V17.5L12 23L2.5 17.5V6.5L12 1ZM6.49896 9.97065L11 12.5765V17.625H13V12.5765L17.501 9.97066L16.499 8.2398L12 10.8445L7.50104 8.2398L6.49896 9.97065Z"></path></symbol><symbol viewBox="0 0 24 24" id="save-2-line"><path d="M5 5V19H19V7.82843L16.1716 5H5ZM4 3H17L20.7071 6.70711C20.8946 6.89464 21 7.149 21 7.41421V20C21 20.5523 20.5523 21 20 21H4C3.44772 21 3 20.5523 3 20V4C3 3.44772 3.44772 3 4 3ZM12 18C10.3431 18 9 16.6569 9 15C9 13.3431 10.3431 12 12 12C13.6569 12 15 13.3431 15 15C15 16.6569 13.6569 18 12 18ZM6 6H15V10H6V6Z"></path></symbol><symbol viewBox="0 0 24 24" id="fingerprint-line"><path d="M17.0003 13V14C17.0003 16.7696 16.3364 19.445 15.0853 21.8455L14.8585 22.2663L13.1116 21.2924C14.2716 19.2115 14.9211 16.8817 14.9935 14.4559L15.0003 14V13H17.0003ZM11.0003 10H13.0003V14L12.9948 14.3787C12.9153 17.1495 11.9645 19.7731 10.3038 21.928L10.073 22.2189L8.52406 20.9536C10.0408 19.0969 10.9145 16.8017 10.9943 14.3663L11.0003 14V10ZM12.0003 6C14.7617 6 17.0003 8.23858 17.0003 11H15.0003C15.0003 9.34315 13.6571 8 12.0003 8C10.3434 8 9.00025 9.34315 9.00025 11V14C9.00025 16.2354 8.1806 18.3444 6.72928 19.9768L6.51767 20.2067L5.06955 18.8273C6.23328 17.6056 6.92099 16.0118 6.99381 14.3027L7.00025 14V11C7.00025 8.23858 9.23883 6 12.0003 6ZM12.0003 2C16.9708 2 21.0003 6.02944 21.0003 11V14C21.0003 15.6979 20.7985 17.3699 20.4035 18.9903L20.2647 19.5285L18.3349 19.0032C18.726 17.5662 18.9475 16.0808 18.9919 14.5684L19.0003 14V11C19.0003 7.13401 15.8662 4 12.0003 4C10.4279 4 8.97663 4.51841 7.80805 5.39364L6.38308 3.96769C7.92267 2.73631 9.87547 2 12.0003 2ZM4.96794 5.38282L6.39389 6.8078C5.5635 7.91652 5.0543 9.27971 5.00431 10.7593L4.99961 10.999L5.00378 13C5.00378 14.1195 4.73991 15.2026 4.24263 16.1772L4.08648 16.4663L2.34961 15.4747C2.72889 14.8103 2.95077 14.0681 2.99539 13.2924L3.00378 13L3.00361 11C3.00025 8.87522 3.73656 6.92242 4.96794 5.38282Z"></path></symbol><symbol viewBox="0 0 24 24" id="qr-code-line"><path d="M16 17V16H13V13H16V15H18V17H17V19H15V21H13V18H15V17H16ZM21 21H17V19H19V17H21V21ZM3 3H11V11H3V3ZM5 5V9H9V5H5ZM13 3H21V11H13V3ZM15 5V9H19V5H15ZM3 13H11V21H3V13ZM5 15V19H9V15H5ZM18 13H21V15H18V13ZM6 6H8V8H6V6ZM6 16H8V18H6V16ZM16 6H18V8H16V6Z"></path></symbol><symbol viewBox="0 0 24 24" id="file-2-line"><path d="M3 8L9.00319 2H19.9978C20.5513 2 21 2.45531 21 2.9918V21.0082C21 21.556 20.5551 22 20.0066 22H3.9934C3.44476 22 3 21.5501 3 20.9932V8ZM10 4V9H5V20H19V4H10Z"></path></symbol><symbol viewBox="0 0 24 24" id="clipboard-line"><path d="M7 4V2H17V4H20.0066C20.5552 4 21 4.44495 21 4.9934V21.0066C21 21.5552 20.5551 22 20.0066 22H3.9934C3.44476 22 3 21.5551 3 21.0066V4.9934C3 4.44476 3.44495 4 3.9934 4H7ZM7 6H5V20H19V6H17V8H7V6ZM9 4V6H15V4H9Z"></path></symbol><symbol viewBox="0 0 24 24" id="folder-3-line"><path d="M12.4142 5H21C21.5523 5 22 5.44772 22 6V20C22 20.5523 21.5523 21 21 21H3C2.44772 21 2 20.5523 2 20V4C2 3.44772 2.44772 3 3 3H10.4142L12.4142 5ZM4 7V19H20V7H4Z"></path></symbol><symbol viewBox="0 0 24 24" id="markdown-line"><path d="M3 3H21C21.5523 3 22 3.44772 22 4V20C22 20.5523 21.5523 21 21 21H3C2.44772 21 2 20.5523 2 20V4C2 3.44772 2.44772 3 3 3ZM4 5V19H20V5H4ZM7 15.5H5V8.5H7L9 10.5L11 8.5H13V15.5H11V11.5L9 13.5L7 11.5V15.5ZM18 12.5H20L17 15.5L14 12.5H16V8.5H18V12.5Z"></path></symbol><symbol viewBox="0 0 24 24" id="price-tag-3-line"><path d="M10.9042 2.1001L20.8037 3.51431L22.2179 13.4138L13.0255 22.6062C12.635 22.9967 12.0019 22.9967 11.6113 22.6062L1.71184 12.7067C1.32131 12.3162 1.32131 11.683 1.71184 11.2925L10.9042 2.1001ZM11.6113 4.22142L3.83316 11.9996L12.3184 20.4849L20.0966 12.7067L19.036 5.28208L11.6113 4.22142ZM13.7327 10.5854C12.9516 9.80433 12.9516 8.538 13.7327 7.75695C14.5137 6.9759 15.78 6.9759 16.5611 7.75695C17.3421 8.538 17.3421 9.80433 16.5611 10.5854C15.78 11.3664 14.5137 11.3664 13.7327 10.5854Z"></path></symbol><symbol viewBox="0 0 24 24" id="vip-diamond-line"><path d="M4.87759 3.00293H19.1319C19.4518 3.00293 19.7524 3.15601 19.9406 3.41476L23.7634 8.67115C23.9037 8.86403 23.8882 9.12913 23.7265 9.30438L12.3721 21.6049C12.1848 21.8078 11.8685 21.8205 11.6656 21.6332C11.6591 21.6271 7.86486 17.5175 0.282992 9.30438C0.121226 9.12913 0.10575 8.86403 0.246026 8.67115L4.06886 3.41476C4.25704 3.15601 4.55766 3.00293 4.87759 3.00293ZM5.38682 5.00293L2.58738 8.85216L12.0047 19.0543L21.4221 8.85216L18.6226 5.00293H5.38682Z"></path></symbol><symbol viewBox="0 0 24 24" id="heart-3-line"><path d="M16.5 3C19.5376 3 22 5.5 22 9C22 16 14.5 20 12 21.5C9.5 20 2 16 2 9C2 5.5 4.5 3 7.5 3C9.35997 3 11 4 12 5C13 4 14.64 3 16.5 3ZM12.9339 18.6038C13.8155 18.0485 14.61 17.4955 15.3549 16.9029C18.3337 14.533 20 11.9435 20 9C20 6.64076 18.463 5 16.5 5C15.4241 5 14.2593 5.56911 13.4142 6.41421L12 7.82843L10.5858 6.41421C9.74068 5.56911 8.5759 5 7.5 5C5.55906 5 4 6.6565 4 9C4 11.9435 5.66627 14.533 8.64514 16.9029C9.39 17.4955 10.1845 18.0485 11.0661 18.6038C11.3646 18.7919 11.6611 18.9729 12 19.1752C12.3389 18.9729 12.6354 18.7919 12.9339 18.6038Z"></path></symbol><symbol viewBox="0 0 24 24" id="centos-line"><path d="M12 2L16.292 6.292L17.353 5.232L16.1207 3.99968L20 4L19.9997 7.87868L18.767 6.646L17.707 7.707L22 12L17.708 16.293L18.767 17.352L19.9997 16.1207L20 20L16.1207 19.9997L17.352 18.767L16.293 17.707L12 22L7.707 17.707L6.646 18.767L7.87868 19.9997L4 20L3.99968 16.1207L5.231 17.352L6.292 16.292L2 12L6.293 7.707L5.231 6.646L3.99968 7.87868L4 4L7.87868 3.99968L6.646 5.231L7.708 6.293L12 2ZM12 13.4128L9.12 16.292L12 19.1716L14.879 16.292L12 13.4128ZM7.707 9.121L4.82843 12L7.706 14.878L10.5858 11.9986L7.707 9.121ZM16.292 9.121L13.4149 11.9993L16.293 14.878L19.1716 12L16.292 9.121ZM12 4.82843L9.122 7.707L12.0007 10.5851L14.878 7.706L12 4.82843Z"></path></symbol><symbol viewBox="0 0 24 24" id="apple-line"><path d="M15.778 8.20805C15.3053 8.17122 14.7974 8.28446 14.0197 8.58079C14.085 8.55589 13.2775 8.87185 13.0511 8.95089C12.5494 9.12605 12.1364 9.2221 11.6734 9.2221C11.2151 9.2221 10.7925 9.13054 10.3078 8.96695C10.1524 8.91453 9.99616 8.85652 9.80283 8.78102C9.71993 8.74864 9.41997 8.62959 9.3544 8.60391C8.70626 8.35008 8.34154 8.25446 8.03885 8.26194C6.88626 8.27662 5.79557 8.94222 5.16246 10.0443C3.87037 12.2876 4.58583 16.3429 6.47459 19.0751C7.4802 20.5191 8.03062 21.0351 8.25199 21.028C8.4743 21.0184 8.63777 20.9714 9.03567 20.8027C9.11485 20.769 9.11485 20.769 9.202 20.7318C10.2077 20.3033 10.9118 20.1141 11.9734 20.1141C12.9944 20.1141 13.6763 20.2999 14.6416 20.716C14.7302 20.7543 14.7302 20.7543 14.8097 20.7885C15.2074 20.9589 15.3509 20.9963 15.6016 20.9903C15.9591 20.9847 16.4003 20.5727 17.3791 19.1363C17.6471 18.7448 17.884 18.3334 18.0895 17.9169C17.9573 17.8078 17.826 17.6918 17.6975 17.5694C16.4086 16.3409 15.6114 14.6846 15.5895 12.6392C15.5756 11.0188 16.1057 9.61499 16.999 8.4581C16.6293 8.31432 16.2216 8.23817 15.778 8.20805ZM15.9334 6.2141C16.6414 6.2621 18.6694 6.4781 19.9894 8.4101C19.8814 8.4701 17.5654 9.8141 17.5894 12.6221C17.6254 15.9821 20.5294 17.0981 20.5654 17.1101C20.5414 17.1941 20.0974 18.7061 19.0294 20.2661C18.1054 21.6221 17.1454 22.9661 15.6334 22.9901C14.1454 23.0261 13.6654 22.1141 11.9734 22.1141C10.2694 22.1141 9.74138 22.9661 8.33738 23.0261C6.87338 23.0741 5.76938 21.5621 4.83338 20.2181C2.92538 17.4581 1.47338 12.4421 3.42938 9.0461C4.40138 7.3541 6.12938 6.2861 8.01338 6.2621C9.44138 6.2261 10.7974 7.2221 11.6734 7.2221C12.5374 7.2221 14.0854 6.0701 15.9334 6.2141ZM14.7934 4.3901C14.0134 5.3261 12.7414 6.0581 11.5054 5.9621C11.3374 4.6901 11.9614 3.3581 12.6814 2.5301C13.4854 1.5941 14.8294 0.898098 15.9454 0.850098C16.0894 2.1461 15.5734 3.4541 14.7934 4.3901Z"></path></symbol><symbol viewBox="0 0 24 24" id="map-pin-2-line"><path d="M12 23.7279L5.63604 17.364C2.12132 13.8492 2.12132 8.15076 5.63604 4.63604C9.15076 1.12132 14.8492 1.12132 18.364 4.63604C21.8787 8.15076 21.8787 13.8492 18.364 17.364L12 23.7279ZM16.9497 15.9497C19.6834 13.2161 19.6834 8.78392 16.9497 6.05025C14.2161 3.31658 9.78392 3.31658 7.05025 6.05025C4.31658 8.78392 4.31658 13.2161 7.05025 15.9497L12 20.8995L16.9497 15.9497ZM12 13C10.8954 13 10 12.1046 10 11C10 9.89543 10.8954 9 12 9C13.1046 9 14 9.89543 14 11C14 12.1046 13.1046 13 12 13Z"></path></symbol><symbol viewBox="0 0 24 24" id="compass-line"><path d="M12 22C6.47715 22 2 17.5228 2 12C2 6.47715 6.47715 2 12 2C17.5228 2 22 6.47715 22 12C22 17.5228 17.5228 22 12 22ZM12 20C16.4183 20 20 16.4183 20 12C20 7.58172 16.4183 4 12 4C7.58172 4 4 7.58172 4 12C4 16.4183 7.58172 20 12 20ZM15.5 8.5L13.5 13.5L8.5 15.5L10.5 10.5L15.5 8.5Z"></path></symbol><symbol viewBox="0 0 24 24" id="notification-3-line"><path d="M20 17H22V19H2V17H4V10C4 5.58172 7.58172 2 12 2C16.4183 2 20 5.58172 20 10V17ZM18 17V10C18 6.68629 15.3137 4 12 4C8.68629 4 6 6.68629 6 10V17H18ZM9 21H15V23H9V21Z"></path></symbol><symbol viewBox="0 0 24 24" id="notification-off-fill"><path d="M18.5869 20.0002H4.00113C3.72499 20.0002 3.50113 19.7763 3.50113 19.5002C3.50113 19.392 3.53622 19.2867 3.60113 19.2002L4.00113 18.6668V10.0002C4.00113 8.67034 4.3256 7.41631 4.89968 6.31291L1.39453 2.80777L2.80874 1.39355L22.6077 21.1925L21.1935 22.6068L18.5869 20.0002ZM20.0011 15.786L7.56016 3.34499C8.83067 2.49549 10.3581 2.00016 12.0011 2.00016C16.4194 2.00016 20.0011 5.58188 20.0011 10.0002V15.786ZM9.50113 21.0002H14.5011C14.5011 22.3809 13.3818 23.5002 12.0011 23.5002C10.6204 23.5002 9.50113 22.3809 9.50113 21.0002Z"></path></symbol><symbol viewBox="0 0 24 24" id="notification-off-line"><path d="M18.5869 20.0002H4.00113C3.72499 20.0002 3.50113 19.7763 3.50113 19.5002C3.50113 19.392 3.53622 19.2867 3.60113 19.2002L4.00113 18.6668V10.0002C4.00113 8.67034 4.3256 7.41631 4.89968 6.31291L1.39453 2.80777L2.80874 1.39355L22.6077 21.1925L21.1935 22.6068L18.5869 20.0002ZM6.40874 7.82198C6.14556 8.49719 6.00113 9.23181 6.00113 10.0002V18.0002H16.5869L6.40874 7.82198ZM20.0011 15.786L18.0011 13.786V10.0002C18.0011 6.68645 15.3148 4.00016 12.0011 4.00016C10.9127 4.00016 9.89194 4.28998 9.01185 4.79667L7.56016 3.34499C8.83067 2.49549 10.3581 2.00016 12.0011 2.00016C16.4194 2.00016 20.0011 5.58188 20.0011 10.0002V15.786ZM9.50113 21.0002H14.5011C14.5011 22.3809 13.3818 23.5002 12.0011 23.5002C10.6204 23.5002 9.50113 22.3809 9.50113 21.0002Z"></path></symbol><symbol viewBox="0 0 24 24" id="star-line"><path d="M12.0006 18.26L4.94715 22.2082L6.52248 14.2799L0.587891 8.7918L8.61493 7.84006L12.0006 0.5L15.3862 7.84006L23.4132 8.7918L17.4787 14.2799L19.054 22.2082L12.0006 18.26ZM12.0006 15.968L16.2473 18.3451L15.2988 13.5717L18.8719 10.2674L14.039 9.69434L12.0006 5.27502L9.96214 9.69434L5.12921 10.2674L8.70231 13.5717L7.75383 18.3451L12.0006 15.968Z"></path></symbol><symbol viewBox="0 0 24 24" id="settings-line"><path d="M12 1L21.5 6.5V17.5L12 23L2.5 17.5V6.5L12 1ZM12 3.311L4.5 7.65311V16.3469L12 20.689L19.5 16.3469V7.65311L12 3.311ZM12 16C9.79086 16 8 14.2091 8 12C8 9.79086 9.79086 8 12 8C14.2091 8 16 9.79086 16 12C16 14.2091 14.2091 16 12 16ZM12 14C13.1046 14 14 13.1046 14 12C14 10.8954 13.1046 10 12 10C10.8954 10 10 10.8954 10 12C10 13.1046 10.8954 14 12 14Z"></path></symbol><symbol viewBox="0 0 24 24" id="information-line"><path d="M12 22C6.47715 22 2 17.5228 2 12C2 6.47715 6.47715 2 12 2C17.5228 2 22 6.47715 22 12C22 17.5228 17.5228 22 12 22ZM12 20C16.4183 20 20 16.4183 20 12C20 7.58172 16.4183 4 12 4C7.58172 4 4 7.58172 4 12C4 16.4183 7.58172 20 12 20ZM11 7H13V9H11V7ZM11 11H13V17H11V11Z"></path></symbol><symbol viewBox="0 0 24 24" id="error-warning-line"><path d="M12 22C6.47715 22 2 17.5228 2 12C2 6.47715 6.47715 2 12 2C17.5228 2 22 6.47715 22 12C22 17.5228 17.5228 22 12 22ZM12 20C16.4183 20 20 16.4183 20 12C20 7.58172 16.4183 4 12 4C7.58172 4 4 7.58172 4 12C4 16.4183 7.58172 20 12 20ZM11 15H13V17H11V15ZM11 7H13V13H11V7Z"></path></symbol><symbol viewBox="0 0 24 24" id="question-line"><path d="M12 22C6.47715 22 2 17.5228 2 12C2 6.47715 6.47715 2 12 2C17.5228 2 22 6.47715 22 12C22 17.5228 17.5228 22 12 22ZM12 20C16.4183 20 20 16.4183 20 12C20 7.58172 16.4183 4 12 4C7.58172 4 4 7.58172 4 12C4 16.4183 7.58172 20 12 20ZM11 15H13V17H11V15ZM13 13.3551V14H11V12.5C11 11.9477 11.4477 11.5 12 11.5C12.8284 11.5 13.5 10.8284 13.5 10C13.5 9.17157 12.8284 8.5 12 8.5C11.2723 8.5 10.6656 9.01823 10.5288 9.70577L8.56731 9.31346C8.88637 7.70919 10.302 6.5 12 6.5C13.933 6.5 15.5 8.067 15.5 10C15.5 11.5855 14.4457 12.9248 13 13.3551Z"></path></symbol><symbol viewBox="0 0 24 24" id="checkbox-circle-line"><path d="M12 22C6.47715 22 2 17.5228 2 12C2 6.47715 6.47715 2 12 2C17.5228 2 22 6.47715 22 12C22 17.5228 17.5228 22 12 22ZM12 20C16.4183 20 20 16.4183 20 12C20 7.58172 16.4183 4 12 4C7.58172 4 4 7.58172 4 12C4 16.4183 7.58172 20 12 20ZM11.0026 16L6.75999 11.7574L8.17421 10.3431L11.0026 13.1716L16.6595 7.51472L18.0737 8.92893L11.0026 16Z"></path></symbol><symbol viewBox="0 0 24 24" id="close-circle-line"><path d="M12 22C6.47715 22 2 17.5228 2 12C2 6.47715 6.47715 2 12 2C17.5228 2 22 6.47715 22 12C22 17.5228 17.5228 22 12 22ZM12 20C16.4183 20 20 16.4183 20 12C20 7.58172 16.4183 4 12 4C7.58172 4 4 7.58172 4 12C4 16.4183 7.58172 20 12 20ZM12 10.5858L14.8284 7.75736L16.2426 9.17157L13.4142 12L16.2426 14.8284L14.8284 16.2426L12 13.4142L9.17157 16.2426L7.75736 14.8284L10.5858 12L7.75736 9.17157L9.17157 7.75736L12 10.5858Z"></path></symbol><symbol viewBox="0 0 24 24" id="shield-line"><path d="M3.78307 2.82598L12 1L20.2169 2.82598C20.6745 2.92766 21 3.33347 21 3.80217V13.7889C21 15.795 19.9974 17.6684 18.3282 18.7812L12 23L5.6718 18.7812C4.00261 17.6684 3 15.795 3 13.7889V3.80217C3 3.33347 3.32553 2.92766 3.78307 2.82598ZM5 4.60434V13.7889C5 15.1263 5.6684 16.3752 6.7812 17.1171L12 20.5963L17.2188 17.1171C18.3316 16.3752 19 15.1263 19 13.7889V4.60434L12 3.04879L5 4.60434Z"></path></symbol><symbol viewBox="0 0 24 24" id="logout-box-line"><path d="M4 18H6V20H18V4H6V6H4V3C4 2.44772 4.44772 2 5 2H19C19.5523 2 20 2.44772 20 3V21C20 21.5523 19.5523 22 19 22H5C4.44772 22 4 21.5523 4 21V18ZM6 11H13V13H6V16L1 12L6 8V11Z"></path></symbol><symbol viewBox="0 0 24 24" id="login-box-line"><path d="M4 15H6V20H18V4H6V9H4V3C4 2.44772 4.44772 2 5 2H19C19.5523 2 20 2.44772 20 3V21C20 21.5523 19.5523 22 19 22H5C4.44772 22 4 21.5523 4 21V15ZM10 11V8L15 12L10 16V13H2V11H10Z"></path></symbol><symbol viewBox="0 0 24 24" id="delete-bin-7-line"><path d="M17 6H22V8H20V21C20 21.5523 19.5523 22 19 22H5C4.44772 22 4 21.5523 4 21V8H2V6H7V3C7 2.44772 7.44772 2 8 2H16C16.5523 2 17 2.44772 17 3V6ZM18 8H6V20H18V8ZM9 4V6H15V4H9Z"></path></symbol><symbol viewBox="0 0 24 24" id="lock-2-line"><path d="M6 8V7C6 3.68629 8.68629 1 12 1C15.3137 1 18 3.68629 18 7V8H20C20.5523 8 21 8.44772 21 9V21C21 21.5523 20.5523 22 20 22H4C3.44772 22 3 21.5523 3 21V9C3 8.44772 3.44772 8 4 8H6ZM19 10H5V20H19V10ZM11 15.7324C10.4022 15.3866 10 14.7403 10 14C10 12.8954 10.8954 12 12 12C13.1046 12 14 12.8954 14 14C14 14.7403 13.5978 15.3866 13 15.7324V18H11V15.7324ZM8 8H16V7C16 4.79086 14.2091 3 12 3C9.79086 3 8 4.79086 8 7V8Z"></path></symbol><symbol viewBox="0 0 24 24" id="eye-line"><path d="M12.0003 3C17.3924 3 21.8784 6.87976 22.8189 12C21.8784 17.1202 17.3924 21 12.0003 21C6.60812 21 2.12215 17.1202 1.18164 12C2.12215 6.87976 6.60812 3 12.0003 3ZM12.0003 19C16.2359 19 19.8603 16.052 20.7777 12C19.8603 7.94803 16.2359 5 12.0003 5C7.7646 5 4.14022 7.94803 3.22278 12C4.14022 16.052 7.7646 19 12.0003 19ZM12.0003 16.5C9.51498 16.5 7.50026 14.4853 7.50026 12C7.50026 9.51472 9.51498 7.5 12.0003 7.5C14.4855 7.5 16.5003 9.51472 16.5003 12C16.5003 14.4853 14.4855 16.5 12.0003 16.5ZM12.0003 14.5C13.381 14.5 14.5003 13.3807 14.5003 12C14.5003 10.6193 13.381 9.5 12.0003 9.5C10.6196 9.5 9.50026 10.6193 9.50026 12C9.50026 13.3807 10.6196 14.5 12.0003 14.5Z"></path></symbol><symbol viewBox="0 0 24 24" id="search-2-line"><path d="M11 2C15.968 2 20 6.032 20 11C20 15.968 15.968 20 11 20C6.032 20 2 15.968 2 11C2 6.032 6.032 2 11 2ZM11 18C14.8675 18 18 14.8675 18 11C18 7.1325 14.8675 4 11 4C7.1325 4 4 7.1325 4 11C4 14.8675 7.1325 18 11 18ZM19.4853 18.0711L22.3137 20.8995L20.8995 22.3137L18.0711 19.4853L19.4853 18.0711Z"></path></symbol><symbol viewBox="0 0 24 24" id="eye-off-line"><path d="M17.8827 19.2968C16.1814 20.3755 14.1638 21.0002 12.0003 21.0002C6.60812 21.0002 2.12215 17.1204 1.18164 12.0002C1.61832 9.62282 2.81932 7.5129 4.52047 5.93457L1.39366 2.80777L2.80788 1.39355L22.6069 21.1925L21.1927 22.6068L17.8827 19.2968ZM5.9356 7.3497C4.60673 8.56015 3.6378 10.1672 3.22278 12.0002C4.14022 16.0521 7.7646 19.0002 12.0003 19.0002C13.5997 19.0002 15.112 18.5798 16.4243 17.8384L14.396 15.8101C13.7023 16.2472 12.8808 16.5002 12.0003 16.5002C9.51498 16.5002 7.50026 14.4854 7.50026 12.0002C7.50026 11.1196 7.75317 10.2981 8.19031 9.60442L5.9356 7.3497ZM12.9139 14.328L9.67246 11.0866C9.5613 11.3696 9.50026 11.6777 9.50026 12.0002C9.50026 13.3809 10.6196 14.5002 12.0003 14.5002C12.3227 14.5002 12.6309 14.4391 12.9139 14.328ZM20.8068 16.5925L19.376 15.1617C20.0319 14.2268 20.5154 13.1586 20.7777 12.0002C19.8603 7.94818 16.2359 5.00016 12.0003 5.00016C11.1544 5.00016 10.3329 5.11773 9.55249 5.33818L7.97446 3.76015C9.22127 3.26959 10.5793 3.00016 12.0003 3.00016C17.3924 3.00016 21.8784 6.87992 22.8189 12.0002C22.5067 13.6998 21.8038 15.2628 20.8068 16.5925ZM11.7229 7.50857C11.8146 7.50299 11.9071 7.50016 12.0003 7.50016C14.4855 7.50016 16.5003 9.51488 16.5003 12.0002C16.5003 12.0933 16.4974 12.1858 16.4919 12.2775L11.7229 7.50857Z"></path></symbol><symbol viewBox="0 0 24 24" id="user-line"><path d="M4 22C4 17.5817 7.58172 14 12 14C16.4183 14 20 17.5817 20 22H18C18 18.6863 15.3137 16 12 16C8.68629 16 6 18.6863 6 22H4ZM12 13C8.685 13 6 10.315 6 7C6 3.685 8.685 1 12 1C15.315 1 18 3.685 18 7C18 10.315 15.315 13 12 13ZM12 11C14.21 11 16 9.21 16 7C16 4.79 14.21 3 12 3C9.79 3 8 4.79 8 7C8 9.21 9.79 11 12 11Z"></path></symbol><symbol viewBox="0 0 24 24" id="user-add-line"><path d="M14 14.252V16.3414C13.3744 16.1203 12.7013 16 12 16C8.68629 16 6 18.6863 6 22H4C4 17.5817 7.58172 14 12 14C12.6906 14 13.3608 14.0875 14 14.252ZM12 13C8.685 13 6 10.315 6 7C6 3.685 8.685 1 12 1C15.315 1 18 3.685 18 7C18 10.315 15.315 13 12 13ZM12 11C14.21 11 16 9.21 16 7C16 4.79 14.21 3 12 3C9.79 3 8 4.79 8 7C8 9.21 9.79 11 12 11ZM18 17V14H20V17H23V19H20V22H18V19H15V17H18Z"></path></symbol><symbol viewBox="0 0 24 24" id="user-unfollow-line"><path d="M14 14.252V16.3414C13.3744 16.1203 12.7013 16 12 16C8.68629 16 6 18.6863 6 22H4C4 17.5817 7.58172 14 12 14C12.6906 14 13.3608 14.0875 14 14.252ZM12 13C8.685 13 6 10.315 6 7C6 3.685 8.685 1 12 1C15.315 1 18 3.685 18 7C18 10.315 15.315 13 12 13ZM12 11C14.21 11 16 9.21 16 7C16 4.79 14.21 3 12 3C9.79 3 8 4.79 8 7C8 9.21 9.79 11 12 11ZM19 17.5858L21.1213 15.4645L22.5355 16.8787L20.4142 19L22.5355 21.1213L21.1213 22.5355L19 20.4142L16.8787 22.5355L15.4645 21.1213L17.5858 19L15.4645 16.8787L16.8787 15.4645L19 17.5858Z"></path></symbol><symbol viewBox="0 0 24 24" id="user-heart-line"><path d="M17.841 15.659L18.017 15.836L18.1945 15.659C19.0732 14.7803 20.4978 14.7803 21.3765 15.659C22.2552 16.5377 22.2552 17.9623 21.3765 18.841L18.0178 22.1997L14.659 18.841C13.7803 17.9623 13.7803 16.5377 14.659 15.659C15.5377 14.7803 16.9623 14.7803 17.841 15.659ZM12 14V16C8.68629 16 6 18.6863 6 22H4C4 17.6651 7.44784 14.1355 11.7508 14.0038L12 14ZM12 1C15.315 1 18 3.685 18 7C18 10.2397 15.4357 12.8776 12.225 12.9959L12 13C8.685 13 6 10.315 6 7C6 3.76034 8.56434 1.12237 11.775 1.00414L12 1ZM12 3C9.78957 3 8 4.78957 8 7C8 9.21043 9.78957 11 12 11C14.2104 11 16 9.21043 16 7C16 4.78957 14.2104 3 12 3Z"></path></symbol><symbol viewBox="0 0 24 24" id="group-line"><path d="M2 22C2 17.5817 5.58172 14 10 14C14.4183 14 18 17.5817 18 22H16C16 18.6863 13.3137 16 10 16C6.68629 16 4 18.6863 4 22H2ZM10 13C6.685 13 4 10.315 4 7C4 3.685 6.685 1 10 1C13.315 1 16 3.685 16 7C16 10.315 13.315 13 10 13ZM10 11C12.21 11 14 9.21 14 7C14 4.79 12.21 3 10 3C7.79 3 6 4.79 6 7C6 9.21 7.79 11 10 11ZM18.2837 14.7028C21.0644 15.9561 23 18.752 23 22H21C21 19.564 19.5483 17.4671 17.4628 16.5271L18.2837 14.7028ZM17.5962 3.41321C19.5944 4.23703 21 6.20361 21 8.5C21 11.3702 18.8042 13.7252 16 13.9776V11.9646C17.6967 11.7222 19 10.264 19 8.5C19 7.11935 18.2016 5.92603 17.041 5.35635L17.5962 3.41321Z"></path></symbol><symbol viewBox="0 0 24 24" id="emotion-line"><path d="M12 22C6.47715 22 2 17.5228 2 12C2 6.47715 6.47715 2 12 2C17.5228 2 22 6.47715 22 12C22 17.5228 17.5228 22 12 22ZM12 20C16.4183 20 20 16.4183 20 12C20 7.58172 16.4183 4 12 4C7.58172 4 4 7.58172 4 12C4 16.4183 7.58172 20 12 20ZM8 13H16C16 15.2091 14.2091 17 12 17C9.79086 17 8 15.2091 8 13ZM8 11C7.17157 11 6.5 10.3284 6.5 9.5C6.5 8.67157 7.17157 8 8 8C8.82843 8 9.5 8.67157 9.5 9.5C9.5 10.3284 8.82843 11 8 11ZM16 11C15.1716 11 14.5 10.3284 14.5 9.5C14.5 8.67157 15.1716 8 16 8C16.8284 8 17.5 8.67157 17.5 9.5C17.5 10.3284 16.8284 11 16 11Z"></path></symbol><symbol viewBox="0 0 24 24" id="sun-line"><path d="M12 18C8.68629 18 6 15.3137 6 12C6 8.68629 8.68629 6 12 6C15.3137 6 18 8.68629 18 12C18 15.3137 15.3137 18 12 18ZM12 16C14.2091 16 16 14.2091 16 12C16 9.79086 14.2091 8 12 8C9.79086 8 8 9.79086 8 12C8 14.2091 9.79086 16 12 16ZM11 1H13V4H11V1ZM11 20H13V23H11V20ZM3.51472 4.92893L4.92893 3.51472L7.05025 5.63604L5.63604 7.05025L3.51472 4.92893ZM16.9497 18.364L18.364 16.9497L20.4853 19.0711L19.0711 20.4853L16.9497 18.364ZM19.0711 3.51472L20.4853 4.92893L18.364 7.05025L16.9497 5.63604L19.0711 3.51472ZM5.63604 16.9497L7.05025 18.364L4.92893 20.4853L3.51472 19.0711L5.63604 16.9497ZM23 11V13H20V11H23ZM4 11V13H1V11H4Z"></path></symbol><symbol viewBox="0 0 24 24" id="moon-line"><path d="M10 7C10 10.866 13.134 14 17 14C18.9584 14 20.729 13.1957 21.9995 11.8995C22 11.933 22 11.9665 22 12C22 17.5228 17.5228 22 12 22C6.47715 22 2 17.5228 2 12C2 6.47715 6.47715 2 12 2C12.0335 2 12.067 2 12.1005 2.00049C10.8043 3.27098 10 5.04157 10 7ZM4 12C4 16.4183 7.58172 20 12 20C15.0583 20 17.7158 18.2839 19.062 15.7621C18.3945 15.9187 17.7035 16 17 16C12.0294 16 8 11.9706 8 7C8 6.29648 8.08133 5.60547 8.2379 4.938C5.71611 6.28423 4 8.9417 4 12Z"></path></symbol><symbol viewBox="0 0 24 24" id="flashlight-line"><path d="M13 9H21L11 24V15H4L13 0V9ZM11 11V7.22063L7.53238 13H13V17.3944L17.263 11H11Z"></path></symbol><symbol viewBox="0 0 24 24" id="fire-line"><path d="M12 23C16.1421 23 19.5 19.6421 19.5 15.5C19.5 14.6345 19.2697 13.8032 19 13.0296C17.3333 14.6765 16.0667 15.5 15.2 15.5C19.1954 8.5 17 5.5 11 1.5C11.5 6.49951 8.20403 8.77375 6.86179 10.0366C5.40786 11.4045 4.5 13.3462 4.5 15.5C4.5 19.6421 7.85786 23 12 23ZM12.7094 5.23498C15.9511 7.98528 15.9666 10.1223 13.463 14.5086C12.702 15.8419 13.6648 17.5 15.2 17.5C15.8884 17.5 16.5841 17.2992 17.3189 16.9051C16.6979 19.262 14.5519 21 12 21C8.96243 21 6.5 18.5376 6.5 15.5C6.5 13.9608 7.13279 12.5276 8.23225 11.4932C8.35826 11.3747 8.99749 10.8081 9.02477 10.7836C9.44862 10.4021 9.7978 10.0663 10.1429 9.69677C11.3733 8.37932 12.2571 6.91631 12.7094 5.23498Z"></path></symbol></svg>