<svg width="32" height="33" viewBox="0 0 32 33" fill="none" xmlns="http://www.w3.org/2000/svg">
	<mask id="mask0_44_495" style="mask-type:alpha" maskUnits="userSpaceOnUse" x="0" y="0" width="32" height="33">
		<rect y="0.5" width="32" height="32" fill="#fff"/>
	</mask>
	<g mask="url(#mask0_44_495)">
		<path d="M5.33332 27.1667C4.59999 27.1667 3.97243 26.9058 3.45066 26.384C2.92799 25.8614 2.66666 25.2334 2.66666 24.5V8.50004C2.66666 7.76671 2.92799 7.13915 3.45066 6.61737C3.97243 6.09471 4.59999 5.83337 5.33332 5.83337H26.6667C27.4 5.83337 28.028 6.09471 28.5507 6.61737C29.0724 7.13915 29.3333 7.76671 29.3333 8.50004V13.8H28L26.6667 13.8334V11.1667L16 17.8334L5.33332 11.1667V24.5H21.3333V27.1667H5.33332ZM16 15.1667L26.6667 8.50004H5.33332L16 15.1667ZM25.3333 27.1667C24.9555 27.1667 24.6391 27.0387 24.384 26.7827C24.128 26.5276 24 26.2112 24 25.8334V21.8334C24 21.4556 24.128 21.1387 24.384 20.8827C24.6391 20.6276 24.9555 20.5 25.3333 20.5V19.1667C25.3333 18.4334 25.5942 17.8054 26.116 17.2827C26.6387 16.7609 27.2667 16.5 28 16.5C28.7333 16.5 29.3613 16.7609 29.884 17.2827C30.4058 17.8054 30.6667 18.4334 30.6667 19.1667V20.5C31.0444 20.5 31.3609 20.6276 31.616 20.8827C31.872 21.1387 32 21.4556 32 21.8334V25.8334C32 26.2112 31.872 26.5276 31.616 26.7827C31.3609 27.0387 31.0444 27.1667 30.6667 27.1667H25.3333ZM26.6667 20.5H29.3333V19.1667C29.3333 18.7889 29.2053 18.472 28.9493 18.216C28.6942 17.9609 28.3778 17.8334 28 17.8334C27.6222 17.8334 27.3058 17.9609 27.0507 18.216C26.7947 18.472 26.6667 18.7889 26.6667 19.1667V20.5Z"
			  fill="#EBF2FF"/>
	</g>
</svg>
