<svg width="32" height="33" viewBox="0 0 32 33" fill="none" xmlns="http://www.w3.org/2000/svg">
<g clip-path="url(#clip0_44_499)">
<path d="M31.66 16.86C31.66 15.8067 31.5667 14.8067 31.4067 13.8334H16.34V19.8467H24.9667C24.58 21.82 23.4467 23.4867 21.7667 24.62V28.62H26.9133C29.9267 25.8334 31.66 21.7267 31.66 16.86Z" fill="#4285F4"/>
<path d="M16.34 32.5C20.66 32.5 24.2733 31.06 26.9133 28.62L21.7667 24.62C20.3267 25.58 18.5 26.1667 16.34 26.1667C12.1667 26.1667 8.63333 23.3533 7.36667 19.5533H2.06V23.6733C4.68666 28.9 10.0867 32.5 16.34 32.5Z" fill="#34A853"/>
<path d="M7.36666 19.5533C7.03333 18.5933 6.86 17.5667 6.86 16.5C6.86 15.4333 7.04666 14.4067 7.36666 13.4467V9.32666H2.05999C0.966662 11.4867 0.339996 13.9133 0.339996 16.5C0.339996 19.0867 0.966662 21.5133 2.05999 23.6733L7.36666 19.5533Z" fill="#FBBC05"/>
<path d="M16.34 6.83333C18.7 6.83333 20.8067 7.64667 22.4733 9.23334L27.0333 4.67334C24.2733 2.08667 20.66 0.5 16.34 0.5C10.0867 0.5 4.68666 4.1 2.06 9.32667L7.36667 13.4467C8.63333 9.64667 12.1667 6.83333 16.34 6.83333Z" fill="#EA4335"/>
</g>
<defs>
<clipPath id="clip0_44_499">
<rect width="32" height="32" fill="white" transform="translate(0 0.5)"/>
</clipPath>
</defs>
</svg>
