<svg width="32" height="32" viewBox="0 0 32 32" fill="none" xmlns="http://www.w3.org/2000/svg">
	<mask id="mask0_54_162" style="mask-type:alpha" maskUnits="userSpaceOnUse" x="0" y="0" width="32" height="32">
		<rect width="32" height="32" fill="#fff"/>
	</mask>
	<g mask="url(#mask0_54_162)">
		<path d="M9.33337 18.6667C8.60004 18.6667 7.97248 18.4053 7.45071 17.8827C6.92804 17.3609 6.66671 16.7333 6.66671 16C6.66671 15.2667 6.92804 14.6387 7.45071 14.116C7.97248 13.5942 8.60004 13.3333 9.33337 13.3333C10.0667 13.3333 10.6943 13.5942 11.216 14.116C11.7387 14.6387 12 15.2667 12 16C12 16.7333 11.7387 17.3609 11.216 17.8827C10.6943 18.4053 10.0667 18.6667 9.33337 18.6667ZM9.33337 24C7.11115 24 5.22226 23.2222 3.66671 21.6667C2.11115 20.1111 1.33337 18.2222 1.33337 16C1.33337 13.7778 2.11115 11.8889 3.66671 10.3333C5.22226 8.77778 7.11115 8 9.33337 8C10.8223 8 12.1725 8.36667 13.384 9.1C14.5947 9.83333 15.5556 10.8 16.2667 12H28L32 16L26 22L23.3334 20L20.6667 22L17.8334 20H16.2667C15.5556 21.2 14.5947 22.1667 13.384 22.9C12.1725 23.6333 10.8223 24 9.33337 24ZM9.33337 21.3333C10.5778 21.3333 11.6725 20.9556 12.6174 20.2C13.5614 19.4444 14.1889 18.4889 14.5 17.3333H18.6667L20.6 18.7L23.3334 16.6667L25.7 18.5L28.2 16L26.8667 14.6667H14.5C14.1889 13.5111 13.5614 12.5556 12.6174 11.8C11.6725 11.0444 10.5778 10.6667 9.33337 10.6667C7.86671 10.6667 6.61115 11.1889 5.56671 12.2333C4.52226 13.2778 4.00004 14.5333 4.00004 16C4.00004 17.4667 4.52226 18.7222 5.56671 19.7667C6.61115 20.8111 7.86671 21.3333 9.33337 21.3333Z"
			  fill="#EBF2FF"/>
	</g>
</svg>
