<svg width="32" height="32" viewBox="0 0 32 32" fill="none" xmlns="http://www.w3.org/2000/svg">
	<mask id="mask0_40_391" style="mask-type:alpha" maskUnits="userSpaceOnUse" x="0" y="0" width="32" height="32">
		<rect width="32" height="32" fill="#fff"/>
	</mask>
	<g mask="url(#mask0_40_391)">
		<path d="M16 29.3333C12.9111 28.5555 10.3613 26.7831 8.35066 24.016C6.33911 21.2497 5.33333 18.1777 5.33333 14.8V6.66663L16 2.66663L26.6667 6.66663V14.8C26.6667 18.1777 25.6613 21.2497 23.6507 24.016C21.6391 26.7831 19.0889 28.5555 16 29.3333ZM16 26.5333C18.3111 25.8 20.2222 24.3333 21.7333 22.1333C23.2444 19.9333 24 17.4888 24 14.8V8.49996L16 5.49996L7.99999 8.49996V14.8C7.99999 17.4888 8.75555 19.9333 10.2667 22.1333C11.7778 24.3333 13.6889 25.8 16 26.5333Z"
			  fill="#EBF2FF"/>
	</g>
</svg>
